SplineFontDB: 3.0
FontName: Comme-ExtraBold
FullName: Comme ExtraBold
FamilyName: Comme
Weight: ExtraBold
Copyright: Digitized data Copyright (c) 2011-2014, vernon adams.
Version: 2
ItalicAngle: 0
UnderlinePosition: 0
UnderlineWidth: 0
Ascent: 800
Descent: 200
UFOAscent: 761.719
UFODescent: -271.484
LayerCount: 2
Layer: 0 0 "Back"  1
Layer: 1 0 "Fore"  0
OS2Version: 0
OS2_WeightWidthSlopeOnly: 0
OS2_UseTypoMetrics: 0
CreationTime: 1397230027
ModificationTime: 1397231592
PfmFamily: 0
TTFWeight: 800
TTFWidth: 5
LineGap: 0
VLineGap: 0
OS2TypoAscent: 1167
OS2TypoAOffset: 0
OS2TypoDescent: -250
OS2TypoDOffset: 0
OS2TypoLinegap: 0
OS2WinAscent: 1167
OS2WinAOffset: 0
OS2WinDescent: 250
OS2WinDOffset: 0
HheadAscent: 0
HheadAOffset: 1
HheadDescent: 0
HheadDOffset: 1
OS2Vendor: 'NeWT'
Lookup: 4 0 1 "ligaStandardLigatureslookup0"  {"ligaStandardLigatureslookup0 subtable"  } ['liga' ('latn' <'dflt' > 'grek' <'dflt' > 'DFLT' <'dflt' > ) ]
Lookup: 4 0 0 "fracDiagonalFractionslookup11"  {"fracDiagonalFractionslookup11 subtable"  } ['frac' ('latn' <'dflt' 'CAT ' 'MOL ' 'ROM ' 'TRK ' > 'grek' <'dflt' > 'DFLT' <'dflt' > ) ]
Lookup: 6 0 0 "ordnOrdinalslookup12"  {"ordnOrdinalslookup12 contextual 0"  "ordnOrdinalslookup12 contextual 1"  } ['ordn' ('latn' <'dflt' 'CAT ' 'MOL ' 'ROM ' 'TRK ' > 'grek' <'dflt' > 'DFLT' <'dflt' > ) ]
Lookup: 1 0 0 "Single Substitution lookup 3"  {"Single Substitution lookup 3 subtable"  } []
Lookup: 1 0 0 "Single Substitution lookup 4"  {"Single Substitution lookup 4 subtable"  } []
Lookup: 4 0 0 "dligDiscretionaryLigatureslooku"  {"dligDiscretionaryLigatureslooku subtable"  } ['dlig' ('latn' <'dflt' 'CAT ' 'MOL ' 'ROM ' 'TRK ' > 'grek' <'dflt' > 'DFLT' <'dflt' > ) ]
MarkAttachClasses: 1
DEI: 91125
ChainSub2: coverage "ordnOrdinalslookup12 contextual 1"  0 0 0 1
 1 1 0
  Coverage: 3 O o
  BCoverage: 49 zero one two three four five six seven eight nine
 1
  SeqLookup: 0 "Single Substitution lookup 4" 
EndFPST

StartChar: A
Encoding: 65 65 0
Width: 750
VWidth: 0
GlyphClass: 2
Flags: HW
PickledData: "(dp1
S'org.pippin.gimp.org.kernagic'
p2
(dp3
S'lstem'
p4
I0
sS'rstem'
p5
I0
ssS'com.typemytype.robofont.layerData'
p6
(dp7
sS'org.robofab.postScriptHintData'
p8
(dp9
s."
AnchorPoint: "top" 379 711 basechar 0
LayerCount: 2
Fore
SplineSet
260 711 m 257
 26 0 l 257
 213 0 l 257
 269 177 l 257
 479 177 l 257
 538 0 l 257
 725 0 l 257
 494 711 l 257
 260 711 l 257
302 290 m 257
 376 562 l 257
 448 290 l 257
 302 290 l 257
EndSplineSet
Substitution2: "Single Substitution lookup 3 subtable" ordfeminine
EndChar

StartChar: AE
Encoding: 198 198 1
Width: 998
VWidth: 0
GlyphClass: 2
Flags: HW
PickledData: "(dp1
S'org.pippin.gimp.org.kernagic'
p2
(dp3
S'lstem'
p4
I0
sS'rstem'
p5
I0
ssS'com.typemytype.robofont.layerData'
p6
(dp7
sS'org.robofab.postScriptHintData'
p8
(dp9
s."
LayerCount: 2
Fore
SplineSet
471 282 m 257
 340 282 l 257
 471 512 l 257
 471 282 l 257
443 711 m 257
 6 0 l 257
 188 0 l 257
 289 175 l 257
 471 175 l 257
 471 0 l 257
 936 0 l 257
 940 122 l 257
 613 122 l 257
 613 300 l 257
 910 300 l 257
 910 418 l 257
 613 418 l 257
 613 594 l 257
 919 594 l 257
 929 711 l 257
 443 711 l 257
EndSplineSet
EndChar

StartChar: B
Encoding: 66 66 13
Width: 705
VWidth: 0
GlyphClass: 2
Flags: HW
PickledData: "(dp1
S'org.pippin.gimp.org.kernagic'
p2
(dp3
S'lstem'
p4
I0
sS'rstem'
p5
I0
ssS'com.typemytype.robofont.layerData'
p6
(dp7
sS'org.robofab.postScriptHintData'
p8
(dp9
s."
AnchorPoint: "top" 342 711 basechar 0
LayerCount: 2
Fore
SplineSet
298 1 m 256
 595 1 664 75 664 212 c 256
 664 313 617 360 510 381 c 257
 595 407 645 459 645 529 c 256
 645 713 482 716 304 716 c 256
 241 716 166 714 83 710 c 257
 83 10 l 257
 165 4 237 1 298 1 c 256
270 601 m 257
 286 601 301 602 317 602 c 256
 412 602 450 589 450 510 c 256
 450 450 409 427 345 427 c 258
 270 427 l 257
 270 601 l 257
270 319 m 257
 342 319 l 258
 432 319 479 308 479 225 c 256
 479 140 434 121 315 121 c 256
 300 121 285 121 270 122 c 257
 270 319 l 257
EndSplineSet
EndChar

StartChar: C
Encoding: 67 67 14
Width: 777
VWidth: 0
GlyphClass: 2
Flags: HW
PickledData: "(dp1
S'org.pippin.gimp.org.kernagic'
p2
(dp3
S'lstem'
p4
I0
sS'rstem'
p5
I0
ssS'com.typemytype.robofont.layerData'
p6
(dp7
sS'org.robofab.postScriptHintData'
p8
(dp9
s."
AnchorPoint: "top" 430 711 basechar 0
LayerCount: 2
Fore
SplineSet
725 501 m 257
 707 581 633 721 417 721 c 256
 189 721 57 589 57 358 c 256
 57 121 189 -10 416 -10 c 256
 639 -10 707 126 725 208 c 257
 589 264 l 257
 575 264 l 257
 558 198 515 116 419 116 c 258
 418 116 l 258
 324 116 255 179 255 358 c 256
 255 532 312 586 419 594 c 257
 425 594 l 258
 516 594 558 511 575 446 c 257
 589 446 l 257
 725 501 l 257
EndSplineSet
EndChar

StartChar: D
Encoding: 68 68 21
Width: 759
VWidth: 0
GlyphClass: 2
Flags: HW
PickledData: "(dp1
S'org.pippin.gimp.org.kernagic'
p2
(dp3
S'lstem'
p4
I0
sS'rstem'
p5
I0
ssS'com.fontlab.hintData'
p6
(dp7
S'vhints'
p8
((dp9
S'position'
p10
I1280
sS'width'
p11
I122
stp12
sS'hhints'
p13
((dp14
g10
I0
sg11
I94
s(dp15
g10
I1355
sg11
I94
stp16
ssS'com.typemytype.robofont.layerData'
p17
(dp18
sS'org.robofab.postScriptHintData'
p19
(dp20
s."
HStem: 0 46 662 46
VStem: 625 60
AnchorPoint: "top" 396 711 basechar 0
LayerCount: 2
Fore
SplineSet
83 3 m 257
 140 -3 193 -5 241 -5 c 256
 597 -5 703 147 703 370 c 256
 703 621 584 717 254 717 c 256
 202 717 145 714 83 710 c 257
 83 3 l 257
270 127 m 257
 270 592 l 257
 279 592 286 593 294 593 c 256
 500 593 523 487 523 368 c 256
 523 219 467 126 291 126 c 256
 284 126 277 127 270 127 c 257
EndSplineSet
EndChar

StartChar: uni0394
Encoding: 916 916 24
Width: 651
VWidth: 0
GlyphClass: 2
Flags: HW
PickledData: "(dp1
S'org.pippin.gimp.org.kernagic'
p2
(dp3
S'lstem'
p4
I0
sS'rstem'
p5
I0
ssS'com.typemytype.robofont.layerData'
p6
(dp7
S'b'
(dp8
S'name'
p9
S'Delta'
p10
sS'lib'
p11
(dp12
sS'unicodes'
p13
(tsS'width'
p14
I1334
sS'contours'
p15
(tsS'components'
p16
(tsS'anchors'
p17
(tsssS'org.robofab.postScriptHintData'
p18
(dp19
s."
LayerCount: 2
Fore
SplineSet
160 103 m 257
 316 610 l 257
 477 103 l 257
 160 103 l 257
9 0 m 257
 625 0 l 257
 377 746 l 257
 257 746 l 257
 9 0 l 257
EndSplineSet
EndChar

StartChar: E
Encoding: 69 69 25
Width: 664
VWidth: 0
GlyphClass: 2
Flags: HW
PickledData: "(dp1
S'org.pippin.gimp.org.kernagic'
p2
(dp3
S'lstem'
p4
I0
sS'rstem'
p5
I0
ssS'com.typemytype.robofont.layerData'
p6
(dp7
sS'org.robofab.postScriptHintData'
p8
(dp9
s."
AnchorPoint: "top" 369 711 basechar 0
LayerCount: 2
Fore
SplineSet
83 711 m 257
 83 0 l 257
 600 0 l 257
 602 127 l 257
 269 127 l 257
 269 302 l 257
 574 302 l 257
 574 426 l 257
 269 426 l 257
 269 588 l 257
 583 588 l 257
 593 711 l 257
 83 711 l 257
EndSplineSet
EndChar

StartChar: Eng
Encoding: 330 330 34
Width: 798
VWidth: 0
GlyphClass: 2
Flags: HW
PickledData: "(dp1
S'org.robofab.postScriptHintData'
p2
(dp3
s."
LayerCount: 2
Fore
SplineSet
542 711 m 1
 542 441 l 1
 551 255 l 1
 259 711 l 1
 83 711 l 1
 83 0 l 1
 262 0 l 1
 262 259 l 1
 253 434 l 1
 542 0 l 1
 542 -8 l 2
 542 -119.764604557 526 -137 414 -137 c 1
 426 -247 l 1
 650 -239 716 -176 716 -28 c 0
 716 711 l 1
 542 711 l 1
EndSplineSet
EndChar

StartChar: Euro
Encoding: 8364 8364 37
Width: 679
VWidth: 0
GlyphClass: 2
Flags: HW
PickledData: "(dp1
S'org.pippin.gimp.org.kernagic'
p2
(dp3
S'lstem'
p4
I0
sS'rstem'
p5
I0
ssS'com.typemytype.robofont.layerData'
p6
(dp7
S'b'
(dp8
S'name'
p9
S'Euro'
p10
sS'lib'
p11
(dp12
sS'unicodes'
p13
(tsS'width'
p14
I1391
sS'contours'
p15
(tsS'components'
p16
(tsS'anchors'
p17
(tsssS'org.robofab.postScriptHintData'
p18
(dp19
s."
LayerCount: 2
Fore
SplineSet
-43 257 m 257
 393 257 l 257
 392 332 l 257
 128 332 l 257
 128 392 l 257
 392 392 l 257
 392 466 l 257
 -44 466 l 257
 -44 392 l 257
 42 392 l 257
 42 332 l 257
 -44 332 l 257
 -43 257 l 257
EndSplineSet
Refer: 14 67 N 1 0 0 1 -19 0 2
EndChar

StartChar: F
Encoding: 70 70 38
Width: 613
VWidth: 0
GlyphClass: 2
Flags: HW
PickledData: "(dp1
S'org.pippin.gimp.org.kernagic'
p2
(dp3
S'lstem'
p4
I0
sS'rstem'
p5
I705
ssS'com.typemytype.robofont.layerData'
p6
(dp7
sS'org.robofab.postScriptHintData'
p8
(dp9
s."
AnchorPoint: "top" 355 711 basechar 0
LayerCount: 2
Fore
SplineSet
83 711 m 257
 83 0 l 257
 270 0 l 257
 270 288 l 257
 556 288 l 257
 556 411 l 257
 270 411 l 257
 270 583 l 257
 569 583 l 257
 577 711 l 257
 83 711 l 257
EndSplineSet
EndChar

StartChar: G
Encoding: 71 71 39
Width: 778
VWidth: 0
GlyphClass: 2
Flags: HW
PickledData: "(dp1
S'org.pippin.gimp.org.kernagic'
p2
(dp3
S'lstem'
p4
I0
sS'rstem'
p5
I0
ssS'com.typemytype.robofont.layerData'
p6
(dp7
sS'org.robofab.postScriptHintData'
p8
(dp9
s."
AnchorPoint: "top" 408 711 basechar 0
LayerCount: 2
Fore
SplineSet
410 -10 m 256
 531 -10 630 5 707 41 c 257
 707 401 l 257
 410 401 l 257
 405 285 l 257
 554 275 l 257
 554 135 l 257
 526 124 487 116 440 116 c 256
 341 116 255 164 255 355 c 256
 255 523 312 594 428 594 c 256
 511 594 548 537 572 484 c 257
 585 484 l 257
 708 549 l 257
 669 648 580 721 412 721 c 256
 193 721 57 588 57 355 c 256
 57 118 193 -10 410 -10 c 256
EndSplineSet
EndChar

StartChar: H
Encoding: 72 72 45
Width: 778
VWidth: 0
GlyphClass: 2
Flags: HW
PickledData: "(dp1
S'org.pippin.gimp.org.kernagic'
p2
(dp3
S'lstem'
p4
I0
sS'rstem'
p5
I0
ssS'com.typemytype.robofont.layerData'
p6
(dp7
sS'org.robofab.postScriptHintData'
p8
(dp9
s."
AnchorPoint: "top" 395 711 basechar 0
LayerCount: 2
Fore
SplineSet
509 303 m 257
 509 -3 l 257
 694 -3 l 257
 694 711 l 257
 509 711 l 257
 509 425 l 257
 270 425 l 257
 270 711 l 257
 84 711 l 257
 84 -3 l 257
 270 -3 l 257
 270 303 l 257
 509 303 l 257
EndSplineSet
EndChar

StartChar: Hbar
Encoding: 294 294 46
Width: 775
VWidth: 0
GlyphClass: 2
Flags: HW
PickledData: "(dp1
S'org.pippin.gimp.org.kernagic'
p2
(dp3
S'lstem'
p4
I0
sS'rstem'
p5
I0
ssS'com.typemytype.robofont.layerData'
p6
(dp7
sS'org.robofab.postScriptHintData'
p8
(dp9
s."
LayerCount: 2
Fore
SplineSet
31 629 m 257
 31 532 l 257
 743 532 l 257
 743 629 l 257
 31 629 l 257
EndSplineSet
Refer: 45 72 N 1 0 0 1 0 0 2
EndChar

StartChar: I
Encoding: 73 73 48
Width: 513
VWidth: 0
GlyphClass: 2
Flags: HW
PickledData: "(dp1
S'org.pippin.gimp.org.kernagic'
p2
(dp3
S'lstem'
p4
I0
sS'rstem'
p5
I0
ssS'com.fontlab.hintData'
p6
(dp7
S'vhints'
p8
((dp9
S'position'
p10
I111
sS'width'
p11
I529
stp12
sS'hhints'
p13
((dp14
g10
I0
sg11
I86
s(dp15
g10
I1363
sg11
I86
stp16
ssS'com.typemytype.robofont.layerData'
p17
(dp18
sS'org.robofab.postScriptHintData'
p19
(dp20
s."
HStem: 0 42 666 42
VStem: 54 258
AnchorPoint: "top" 258 711 basechar 0
LayerCount: 2
Fore
SplineSet
58 711 m 257
 58 611 l 257
 166 611 l 257
 166 97 l 257
 58 97 l 257
 58 -3 l 257
 455 -3 l 257
 455 97 l 257
 351 97 l 257
 351 611 l 257
 455 611 l 257
 455 711 l 257
 58 711 l 257
EndSplineSet
EndChar

StartChar: J
Encoding: 74 74 59
Width: 398
VWidth: 0
GlyphClass: 2
Flags: HW
PickledData: "(dp1
S'org.pippin.gimp.org.kernagic'
p2
(dp3
S'lstem'
p4
I132
sS'rstem'
p5
I0
ssS'com.typemytype.robofont.layerData'
p6
(dp7
sS'org.robofab.postScriptHintData'
p8
(dp9
s."
AnchorPoint: "top" 224 711 basechar 0
LayerCount: 2
Fore
SplineSet
128 711 m 257
 128 137 l 258
 128 -39 124 -68 68 -95 c 258
 -27 -141 l 257
 38 -284 l 257
 120 -248 l 258
 302 -168 314 -102 314 52 c 256
 314 76 313 103 313 132 c 258
 313 711 l 257
 128 711 l 257
EndSplineSet
EndChar

StartChar: K
Encoding: 75 75 61
Width: 708
VWidth: 0
GlyphClass: 2
Flags: HW
PickledData: "(dp1
S'org.pippin.gimp.org.kernagic'
p2
(dp3
S'lstem'
p4
I0
sS'rstem'
p5
I851
ssS'com.typemytype.robofont.layerData'
p6
(dp7
sS'org.robofab.postScriptHintData'
p8
(dp9
s."
AnchorPoint: "top" 380 711 basechar 0
LayerCount: 2
Fore
SplineSet
683 711 m 257
 479 711 l 257
 270 438 l 257
 270 711 l 257
 83 711 l 257
 83 0 l 257
 270 0 l 257
 270 258 l 257
 294 288 l 257
 502 0 l 257
 709 0 l 257
 709 3 l 257
 430 388 l 257
 683 709 l 257
 683 711 l 257
EndSplineSet
EndChar

StartChar: L
Encoding: 76 76 63
Width: 588
VWidth: 0
GlyphClass: 2
Flags: HW
PickledData: "(dp1
S'org.pippin.gimp.org.kernagic'
p2
(dp3
S'lstem'
p4
I0
sS'rstem'
p5
I597
ssS'com.typemytype.robofont.layerData'
p6
(dp7
sS'org.robofab.postScriptHintData'
p8
(dp9
s."
AnchorPoint: "top" 182 711 basechar 0
LayerCount: 2
Fore
SplineSet
83 711 m 257
 83 0 l 257
 569 0 l 257
 579 117 l 257
 270 117 l 257
 270 711 l 257
 83 711 l 257
EndSplineSet
EndChar

StartChar: M
Encoding: 77 77 69
Width: 930
VWidth: 0
GlyphClass: 2
Flags: HW
PickledData: "(dp1
S'org.pippin.gimp.org.kernagic'
p2
(dp3
S'lstem'
p4
I0
sS'rstem'
p5
I0
ssS'org.robofab.postScriptHintData'
p6
(dp7
sS'com.typemytype.robofont.guides'
p8
((dp9
S'y'
I378
sS'x'
I548
sS'magnetic'
p10
I5
sS'angle'
p11
I0
sS'isGlobal'
p12
I00
stp13
sS'com.typemytype.robofont.layerData'
p14
(dp15
sS'com.fontlab.hintData'
p16
(dp17
S'vhints'
p18
((dp19
S'position'
p20
I185
sS'width'
p21
I166
s(dp22
g20
I214
sg21
I151
s(dp23
g20
I332
sg21
I33
s(dp24
g20
I1463
sg21
I149
s(dp25
g20
I1463
sg21
I39
s(dp26
g20
I1477
sg21
I164
stp27
ss."
VStem: 90 81 104 74 162 16 714 73 714 19 721 80
AnchorPoint: "top" 466 711 basechar 0
LayerCount: 2
Fore
SplineSet
75 -3 m 257
 248 -3 l 257
 248 271 l 257
 252 440 l 257
 407 116 l 257
 519 116 l 257
 677 440 l 257
 681 272 l 257
 681 -3 l 257
 855 -3 l 257
 855 303 l 257
 845 711 l 257
 660 711 l 257
 467 323 l 257
 274 711 l 257
 85 711 l 257
 75 299 l 257
 75 -3 l 257
EndSplineSet
EndChar

StartChar: N
Encoding: 78 78 70
Width: 799
VWidth: 0
GlyphClass: 2
Flags: HW
PickledData: "(dp1
S'org.pippin.gimp.org.kernagic'
p2
(dp3
S'lstem'
p4
I0
sS'rstem'
p5
I0
ssS'com.typemytype.robofont.layerData'
p6
(dp7
sS'org.robofab.postScriptHintData'
p8
(dp9
s."
AnchorPoint: "top" 372 711 basechar 0
LayerCount: 2
Fore
SplineSet
542 711 m 257
 542 441 l 257
 551 255 l 257
 259 711 l 257
 83 711 l 257
 83 0 l 257
 262 0 l 257
 262 259 l 257
 253 434 l 257
 534 0 l 257
 716 0 l 257
 716 711 l 257
 542 711 l 257
EndSplineSet
EndChar

StartChar: O
Encoding: 79 79 76
Width: 811
VWidth: 0
GlyphClass: 2
Flags: HW
PickledData: "(dp1
S'org.pippin.gimp.org.kernagic'
p2
(dp3
S'lstem'
p4
I0
sS'rstem'
p5
I0
ssS'org.robofab.postScriptHintData'
p6
(dp7
sS'com.typemytype.robofont.guides'
p8
(tsS'com.typemytype.robofont.layerData'
p9
(dp10
sS'com.fontlab.hintData'
p11
(dp12
S'vhints'
p13
((dp14
S'position'
p15
I150
sS'width'
p16
I122
s(dp17
g15
I1390
sg16
I122
stp18
sS'hhints'
p19
((dp20
g15
I-19
sg16
I96
s(dp21
g15
I1372
sg16
I96
stp22
ss."
HStem: -9 47 670 47
VStem: 73 60 679 60
AnchorPoint: "top" 401 711 basechar 0
LayerCount: 2
Fore
SplineSet
556 353 m 256
 556 206 505 122 407 122 c 256
 308 122 255 205 255 353 c 256
 255 500 308 588 406 588 c 256
 505 588 556 500 556 353 c 256
57 353 m 256
 57 121 183 -11 406 -11 c 256
 630 -11 754 121 754 354 c 256
 754 585 629 721 406 721 c 256
 184 721 57 586 57 353 c 256
EndSplineSet
Substitution2: "Single Substitution lookup 4 subtable" ordmasculine
EndChar

StartChar: OE
Encoding: 338 338 77
Width: 1089
VWidth: 0
GlyphClass: 2
Flags: HW
PickledData: "(dp1
S'org.pippin.gimp.org.kernagic'
p2
(dp3
S'lstem'
p4
I0
sS'rstem'
p5
I0
ssS'com.typemytype.robofont.layerData'
p6
(dp7
S'b'
(dp8
S'name'
p9
S'OE'
p10
sS'lib'
p11
(dp12
sS'unicodes'
p13
(tsS'width'
p14
I2367
sS'contours'
p15
(tsS'components'
p16
(tsS'anchors'
p17
(tsssS'org.robofab.postScriptHintData'
p18
(dp19
s."
LayerCount: 2
Fore
SplineSet
534 355 m 256
 534 209 482 120 365 120 c 256
 248 120 194 209 194 355 c 256
 194 504 249 597 365 597 c 256
 482 597 534 504 534 355 c 256
35 355 m 256
 35 121 157 -8 365 -8 c 256
 443 -8 493 5 535 30 c 257
 535 0 l 257
 1018 0 l 257
 1021 122 l 257
 681 122 l 257
 681 305 l 257
 992 305 l 257
 992 423 l 257
 681 423 l 257
 681 594 l 257
 1002 594 l 257
 1011 711 l 257
 535 711 l 257
 535 686 l 257
 493 712 444 724 365 724 c 256
 158 724 35 594 35 355 c 256
EndSplineSet
EndChar

StartChar: Oslash
Encoding: 216 216 85
Width: 812
VWidth: 0
GlyphClass: 2
Flags: HW
PickledData: "(dp1
S'org.pippin.gimp.org.kernagic'
p2
(dp3
S'lstem'
p4
I0
sS'rstem'
p5
I0
ssS'com.typemytype.robofont.layerData'
p6
(dp7
sS'org.robofab.postScriptHintData'
p8
(dp9
s."
AnchorPoint: "top" 406 711 basechar 0
LayerCount: 2
Fore
SplineSet
407 122 m 256
 390 122 375 124 361 129 c 257
 515 528 l 257
 542 488 556 429 556 353 c 256
 556 206 505 122 407 122 c 256
300 175 m 257
 270 214 255 275 255 353 c 256
 255 500 308 588 406 588 c 256
 423 588 440 585 454 580 c 257
 300 175 l 257
264 -125 m 257
 311 -2 l 257
 341 -8 372 -11 406 -11 c 256
 630 -11 754 121 754 354 c 256
 754 518 692 633 576 687 c 257
 626 818 l 257
 555 845 l 257
 503 711 l 257
 473 718 441 721 406 721 c 256
 184 721 57 586 57 353 c 256
 57 186 122 72 241 20 c 257
 195 -100 l 257
 264 -125 l 257
EndSplineSet
EndChar

StartChar: P
Encoding: 80 80 88
Width: 711
VWidth: 0
GlyphClass: 2
Flags: HW
PickledData: "(dp1
S'org.pippin.gimp.org.kernagic'
p2
(dp3
S'lstem'
p4
I0
sS'rstem'
p5
I807
ssS'com.typemytype.robofont.layerData'
p6
(dp7
sS'org.robofab.postScriptHintData'
p8
(dp9
s."
AnchorPoint: "top" 357 711 basechar 0
LayerCount: 2
Fore
SplineSet
83 710 m 257
 83 0 l 257
 270 0 l 257
 270 242 l 257
 294 241 317 240 338 240 c 256
 595 240 678 333 678 492 c 256
 678 646 588 717 280 717 c 256
 222 717 157 715 83 710 c 257
270 361 m 257
 270 598 l 257
 285 598 298 599 311 599 c 256
 476 599 500 548 500 483 c 256
 500 414 466 360 313 360 c 256
 299 360 286 360 270 361 c 257
EndSplineSet
EndChar

StartChar: Q
Encoding: 81 81 89
Width: 811
VWidth: 0
GlyphClass: 2
Flags: HW
PickledData: "(dp1
S'org.pippin.gimp.org.kernagic'
p2
(dp3
S'lstem'
p4
I0
sS'rstem'
p5
I0
ssS'com.typemytype.robofont.layerData'
p6
(dp7
sS'org.robofab.postScriptHintData'
p8
(dp9
s."
LayerCount: 2
Fore
SplineSet
366 42 m 257
 381 -7 528 -197 608 -262 c 257
 725 -165 l 257
 647 -99 575 -8 530 62 c 257
 366 42 l 257
EndSplineSet
Refer: 76 79 N 1 0 0 1 0 0 2
EndChar

StartChar: R
Encoding: 82 82 90
Width: 729
VWidth: 0
GlyphClass: 2
Flags: HW
PickledData: "(dp1
S'org.pippin.gimp.org.kernagic'
p2
(dp3
S'lstem'
p4
I0
sS'rstem'
p5
I839
ssS'com.fontlab.hintData'
p6
(dp7
S'vhints'
p8
((dp9
S'position'
p10
I1122
sS'width'
p11
I117
stp12
sS'hhints'
p13
((dp14
g10
I722
sg11
I96
s(dp15
g10
I1355
sg11
I94
stp16
ssS'com.typemytype.robofont.layerData'
p17
(dp18
sS'org.robofab.postScriptHintData'
p19
(dp20
s."
HStem: 353 47 662 46
VStem: 548 57
AnchorPoint: "top" 370 711 basechar 0
LayerCount: 2
Fore
SplineSet
83 0 m 257
 270 0 l 257
 270 296 l 257
 350 296 l 257
 501 0 l 257
 703 0 l 257
 703 8 l 257
 535 321 l 257
 597 342 666 385 666 505 c 256
 666 675 579 723 352 723 c 256
 278 723 188 717 83 710 c 257
 83 0 l 257
270 592 m 257
 306 595 338 598 367 598 c 256
 445 598 497 580 497 509 c 256
 497 430 460 407 366 407 c 258
 270 407 l 257
 270 592 l 257
EndSplineSet
EndChar

StartChar: S
Encoding: 83 83 94
Width: 599
VWidth: 0
GlyphClass: 2
Flags: HW
PickledData: "(dp1
S'org.pippin.gimp.org.kernagic'
p2
(dp3
S'lstem'
p4
I185
sS'rstem'
p5
I826
ssS'com.typemytype.robofont.guides'
p6
((dp7
S'y'
I973
sS'x'
I1035
sS'magnetic'
p8
I5
sS'angle'
p9
F90
sS'isGlobal'
p10
I00
s(dp11
S'y'
I382
sS'x'
I75
sg8
I5
sg9
F90
sg10
I00
stp12
sS'com.typemytype.robofont.layerData'
p13
(dp14
sS'org.robofab.postScriptHintData'
p15
(dp16
s."
AnchorPoint: "top" 302 712 basechar 0
LayerCount: 2
Fore
SplineSet
541 589 m 257
 520 647 439 721 296 721 c 256
 162 721 44 662 44 515 c 256
 44 405 97 359 175 327 c 258
 284 282 l 258
 359 251 372 230 372 191 c 256
 372 141 341 121 292 121 c 256
 243 121 191 162 165 197 c 257
 148 197 l 257
 37 115 l 257
 75 57 157 -10 299 -10 c 256
 449 -10 560 64 560 202 c 256
 560 330 498 374 396 415 c 258
 312 448 l 258
 249 473 226 489 226 530 c 256
 226 579 264 600 306 600 c 256
 339 600 387 576 407 527 c 257
 418 527 l 257
 541 589 l 257
EndSplineSet
EndChar

StartChar: T
Encoding: 84 84 100
Width: 625
VWidth: 0
GlyphClass: 2
Flags: HW
PickledData: "(dp1
S'org.pippin.gimp.org.kernagic'
p2
(dp3
S'lstem'
p4
I285
sS'rstem'
p5
I844
ssS'com.typemytype.robofont.layerData'
p6
(dp7
sS'org.robofab.postScriptHintData'
p8
(dp9
s."
AnchorPoint: "top" 316 711 basechar 0
LayerCount: 2
Fore
SplineSet
21 711 m 257
 21 594 l 257
 220 594 l 257
 220 -3 l 257
 405 -3 l 257
 405 594 l 257
 604 594 l 257
 604 711 l 257
 21 711 l 257
EndSplineSet
EndChar

StartChar: Thorn
Encoding: 222 222 105
Width: 708
VWidth: 0
GlyphClass: 2
Flags: HW
PickledData: "(dp1
S'org.pippin.gimp.org.kernagic'
p2
(dp3
S'lstem'
p4
I0
sS'rstem'
p5
I0
ssS'com.typemytype.robofont.layerData'
p6
(dp7
S'b'
(dp8
S'name'
p9
S'Thorn'
p10
sS'lib'
p11
(dp12
sS'unicodes'
p13
(tsS'width'
p14
I1192
sS'contours'
p15
(tsS'components'
p16
(tsS'anchors'
p17
(tsssS'org.robofab.postScriptHintData'
p18
(dp19
s."
LayerCount: 2
Fore
SplineSet
83 0 m 257
 269 0 l 257
 269 157 l 257
 336 157 l 258
 586 157 670 246 670 405 c 256
 670 555 578 623 313 623 c 258
 269 623 l 257
 269 712 l 257
 83 712 l 257
 83 0 l 257
269 506 m 257
 323 506 l 258
 468 506 492 462 492 397 c 256
 492 328 458 276 310 276 c 258
 269 276 l 257
 269 506 l 257
EndSplineSet
EndChar

StartChar: U
Encoding: 85 85 106
Width: 746
VWidth: 0
GlyphClass: 2
Flags: HW
PickledData: "(dp1
S'org.pippin.gimp.org.kernagic'
p2
(dp3
S'lstem'
p4
I0
sS'rstem'
p5
I0
ssS'com.typemytype.robofont.layerData'
p6
(dp7
sS'org.robofab.postScriptHintData'
p8
(dp9
s."
AnchorPoint: "top" 373 711 basechar 0
LayerCount: 2
Fore
SplineSet
491 711 m 257
 491 272 l 258
 491 167 449 123 371 123 c 256
 296 123 255 166 255 271 c 258
 255 711 l 257
 70 711 l 257
 70 260 l 258
 70 91 172 -10 371 -10 c 256
 569 -10 676 92 676 260 c 258
 676 711 l 257
 491 711 l 257
EndSplineSet
EndChar

StartChar: V
Encoding: 86 86 117
Width: 673
VWidth: 0
GlyphClass: 2
Flags: HW
PickledData: "(dp1
S'org.pippin.gimp.org.kernagic'
p2
(dp3
S'lstem'
p4
I0
sS'rstem'
p5
I0
ssS'com.typemytype.robofont.layerData'
p6
(dp7
sS'org.robofab.postScriptHintData'
p8
(dp9
s."
LayerCount: 2
Fore
SplineSet
223 -3 m 257
 433 -3 l 257
 670 711 l 257
 491 711 l 257
 354 243 l 257
 333 159 l 257
 286 346 233 527 183 711 c 257
 3 711 l 257
 223 -3 l 257
EndSplineSet
EndChar

StartChar: W
Encoding: 87 87 118
Width: 999
VWidth: 0
GlyphClass: 2
Flags: HW
PickledData: "(dp1
S'org.pippin.gimp.org.kernagic'
p2
(dp3
S'lstem'
p4
I0
sS'rstem'
p5
I0
ssS'com.typemytype.robofont.layerData'
p6
(dp7
sS'org.robofab.postScriptHintData'
p8
(dp9
s."
AnchorPoint: "top" 502 711 basechar 0
LayerCount: 2
Fore
SplineSet
497 475 m 257
 623 0 l 257
 791 0 l 257
 976 711 l 257
 796 711 l 257
 699 239 l 257
 570 708 l 257
 423 708 l 257
 294 242 l 257
 203 711 l 257
 24 711 l 257
 194 0 l 257
 363 0 l 257
 497 475 l 257
EndSplineSet
EndChar

StartChar: X
Encoding: 88 88 123
Width: 693
VWidth: 0
GlyphClass: 2
Flags: HW
PickledData: "(dp1
S'org.pippin.gimp.org.kernagic'
p2
(dp3
S'lstem'
p4
I0
sS'rstem'
p5
I0
ssS'com.typemytype.robofont.layerData'
p6
(dp7
sS'org.robofab.postScriptHintData'
p8
(dp9
s."
LayerCount: 2
Fore
SplineSet
457 361 m 257
 687 711 l 257
 488 711 l 257
 360 507 l 257
 224 711 l 257
 21 711 l 257
 245 375 l 257
 -5 -3 l 257
 187 -3 l 257
 341 230 l 257
 497 -3 l 257
 699 -3 l 257
 457 361 l 257
EndSplineSet
EndChar

StartChar: Y
Encoding: 89 89 124
Width: 658
VWidth: 0
GlyphClass: 2
Flags: HW
PickledData: "(dp1
S'org.pippin.gimp.org.kernagic'
p2
(dp3
S'lstem'
p4
I0
sS'rstem'
p5
I0
ssS'com.typemytype.robofont.layerData'
p6
(dp7
sS'org.robofab.postScriptHintData'
p8
(dp9
s."
AnchorPoint: "top" 331 711 basechar 0
LayerCount: 2
Fore
SplineSet
421 280 m 257
 658 711 l 257
 463 711 l 257
 328 453 l 257
 195 711 l 257
 0 711 l 257
 236 278 l 257
 236 0 l 257
 421 0 l 257
 421 280 l 257
EndSplineSet
EndChar

StartChar: Z
Encoding: 90 90 129
Width: 618
VWidth: 0
GlyphClass: 2
Flags: HW
PickledData: "(dp1
S'org.pippin.gimp.org.kernagic'
p2
(dp3
S'lstem'
p4
I0
sS'rstem'
p5
I0
ssS'com.typemytype.robofont.layerData'
p6
(dp7
sS'org.robofab.postScriptHintData'
p8
(dp9
s."
AnchorPoint: "top" 313 711 basechar 0
LayerCount: 2
Fore
SplineSet
52 0 m 257
 580 0 l 257
 573 117 l 257
 271 117 l 257
 564 607 l 257
 564 711 l 257
 57 711 l 257
 64 594 l 257
 364 594 l 257
 52 96 l 257
 52 0 l 257
EndSplineSet
EndChar

StartChar: a
Encoding: 97 97 133
Width: 567
VWidth: 0
GlyphClass: 2
Flags: HW
PickledData: "(dp1
S'org.pippin.gimp.org.kernagic'
p2
(dp3
S'lstem'
p4
I0
sS'rstem'
p5
I0
ssS'org.robofab.postScriptHintData'
p6
(dp7
sS'com.typemytype.robofont.guides'
p8
(tsS'com.typemytype.robofont.layerData'
p9
(dp10
sS'com.fontlab.hintData'
p11
(dp12
S'vhints'
p13
((dp14
S'position'
p15
I126
sS'width'
p16
I120
s(dp17
g15
I842
sg16
I32
s(dp18
g15
I875
sg16
I86
stp19
sS'hhints'
p20
((dp21
g15
I-15
sg16
I92
s(dp22
g15
I535
sg16
I82
s(dp23
g15
I983
sg16
I92
stp24
ss."
HStem: -7 45 261 40 480 45
VStem: 62 59 411 16 427 42
AnchorPoint: "top" 274 528 basechar 0
LayerCount: 2
Fore
SplineSet
343 122 m 257
 329 107 302 86 259 86 c 256
 227 86 196 106 196 152 c 256
 196 212 251 228 312 228 c 257
 343 227 l 257
 343 122 l 257
203 -8 m 256
 285 -8 333 22 369 58 c 257
 387 0 l 257
 515 0 l 257
 515 309 l 258
 515 472 417 538 290 538 c 256
 217 538 136 517 61 479 c 257
 92 375 l 257
 152 399 213 417 260 417 c 256
 311 417 344 395 344 341 c 258
 344 306 l 257
 274 306 l 257
 272 306 l 258
 167 306 41 273 41 149 c 256
 41 45 108 -8 203 -8 c 256
EndSplineSet
Substitution2: "Single Substitution lookup 3 subtable" ordfeminine
EndChar

StartChar: acute
Encoding: 180 180 137
Width: 388
VWidth: 0
GlyphClass: 4
Flags: HW
PickledData: "(dp1
S'org.robofab.postScriptHintData'
p2
(dp3
sS'com.typemytype.robofont.layerData'
p4
(dp5
s."
AnchorPoint: "top" 244 528 mark 0
LayerCount: 2
Fore
SplineSet
193 589 m 257
 290 589 l 257
 456 788 l 257
 279 788 l 257
 193 589 l 257
EndSplineSet
EndChar

StartChar: ae
Encoding: 230 230 139
Width: 855
VWidth: 0
GlyphClass: 2
Flags: HW
PickledData: "(dp1
S'org.pippin.gimp.org.kernagic'
p2
(dp3
S'lstem'
p4
I0
sS'rstem'
p5
I0
ssS'com.fontlab.hintData'
p6
(dp7
S'vhints'
p8
((dp9
S'position'
p10
I126
sS'width'
p11
I119
s(dp12
g10
I817
sg11
I117
s(dp13
g10
I817
sg11
I82
s(dp14
g10
I1556
sg11
I98
stp15
sS'hhints'
p16
((dp17
g10
I-14
sg11
I98
s(dp18
g10
I518
sg11
I82
s(dp19
g10
I983
sg11
I92
stp20
ssS'com.typemytype.robofont.layerData'
p21
(dp22
sS'org.robofab.postScriptHintData'
p23
(dp24
s."
HStem: -7 48 253 40 480 45
VStem: 62 58 399 57 399 40 760 48
AnchorPoint: "top" 585 528 basechar 0
LayerCount: 2
Fore
SplineSet
703 367 m 256
 703 326 676 301 514 301 c 258
 497 301 l 257
 503 397 563 431 612 431 c 256
 686 431 703 399 703 367 c 256
189 151 m 256
 189 211 242 229 303 229 c 256
 305 229 344 228 347 228 c 257
 347 214 358 155 366 137 c 257
 355 118 322 92 258 86 c 256
 256 86 254 85 252 85 c 256
 221 85 189 106 189 151 c 256
602 -10 m 256
 691 -10 771 17 812 56 c 257
 783 149 l 257
 742 123 688 102 621 102 c 256
 568 102 508 110 496 208 c 257
 509 208 l 258
 695 208 816 239 816 352 c 256
 816 433 762 538 609 538 c 256
 523 538 471 505 437 456 c 257
 420 506 363 537 283 537 c 256
 209 537 128 516 52 478 c 257
 85 375 l 257
 145 399 206 416 252 416 c 256
 303 416 345 396 345 341 c 258
 345 307 l 257
 342 307 268 308 266 308 c 258
 264 308 l 258
 158 308 33 273 33 149 c 256
 33 42 102 -8 202 -8 c 256
 295 -8 366 19 408 68 c 257
 444 26 490 -10 602 -10 c 256
EndSplineSet
EndChar

StartChar: ampersand
Encoding: 38 38 144
Width: 693
VWidth: 0
GlyphClass: 2
Flags: HW
PickledData: "(dp1
S'org.pippin.gimp.org.kernagic'
p2
(dp3
S'lstem'
p4
I0
sS'rstem'
p5
I0
ssS'com.fontlab.hintData'
p6
(dp7
S'vhints'
p8
((dp9
S'position'
p10
I135
sS'width'
p11
I121
s(dp12
g10
I312
sg11
I105
s(dp13
g10
I917
sg11
I110
stp14
sS'hhints'
p15
((dp16
g10
I-19
sg11
I96
s(dp17
g10
I1372
sg11
I96
stp18
ssS'com.typemytype.robofont.layerData'
p19
(dp20
sS'org.robofab.postScriptHintData'
p21
(dp22
s."
HStem: -9 47 670 47
VStem: 66 59 152 51 448 54
LayerCount: 2
Fore
SplineSet
298 478 m 257
 258 524 249 550 249 594 c 256
 249 641 279 655 316 655 c 256
 355 655 384 641 384 597 c 256
 384 556 340 499 298 478 c 257
318 751 m 256
 220 751 118 697 118 578 c 256
 118 512 176 444 198 423 c 257
 139 381 46 320 46 224 c 256
 46 62 150 -8 299 -8 c 256
 383 -8 449 21 504 66 c 257
 580 -18 l 257
 670 55 l 257
 584 151 l 257
 626 205 661 265 694 320 c 257
 607 381 l 257
 578 326 547 274 513 230 c 257
 353 409 l 257
 433 451 509 528 509 599 c 256
 509 710 405 751 318 751 c 256
433 146 m 257
 392 114 349 96 301 96 c 256
 232 96 179 132 179 208 c 256
 179 213 179 219 179 224 c 256
 183 278 255 335 262 338 c 257
 433 146 l 257
EndSplineSet
EndChar

StartChar: uni02BC
Encoding: 700 700 146
Width: 317
VWidth: 0
GlyphClass: 2
Flags: HW
PickledData: "(dp1
S'org.robofab.postScriptHintData'
p2
(dp3
sS'com.typemytype.robofont.layerData'
p4
(dp5
s."
LayerCount: 2
Fore
SplineSet
23 533 m 257
 144 533 l 257
 144 533 173 671 190 763 c 257
 48 763 l 257
 23 533 l 257
EndSplineSet
EndChar

StartChar: approxequal
Encoding: 8776 8776 147
Width: 634
VWidth: 0
GlyphClass: 2
Flags: HW
PickledData: "(dp1
S'org.pippin.gimp.org.kernagic'
p2
(dp3
S'lstem'
p4
I0
sS'rstem'
p5
I0
ssS'com.typemytype.robofont.layerData'
p6
(dp7
S'b'
(dp8
S'name'
p9
S'approxequal'
p10
sS'lib'
p11
(dp12
sS'unicodes'
p13
(tsS'width'
p14
I1136
sS'contours'
p15
(tsS'components'
p16
(tsS'anchors'
p17
(tsssS'org.robofab.postScriptHintData'
p18
(dp19
s."
LayerCount: 2
Fore
SplineSet
123 152 m 257
 134 203 153 231 194 231 c 256
 220 231 243 218 262 208 c 256
 334 168 376 150 428 150 c 256
 524 150 555 208 574 291 c 257
 505 325 l 257
 483 264 454 248 425 248 c 256
 397 248 367 263 331 283 c 256
 277 313 244 330 196 330 c 256
 110 330 60 274 45 187 c 257
 123 152 l 257
123 359 m 257
 134 410 153 439 194 439 c 256
 219 439 243 426 262 416 c 256
 334 376 376 358 428 358 c 256
 524 358 555 416 574 499 c 257
 505 533 l 257
 483 472 454 456 425 456 c 256
 397 456 367 470 331 490 c 256
 277 521 244 537 196 537 c 256
 110 537 60 481 45 394 c 257
 123 359 l 257
EndSplineSet
EndChar

StartChar: asciicircum
Encoding: 94 94 150
Width: 732
VWidth: 0
GlyphClass: 2
Flags: HW
PickledData: "(dp1
S'org.pippin.gimp.org.kernagic'
p2
(dp3
S'lstem'
p4
I0
sS'rstem'
p5
I0
ssS'com.typemytype.robofont.layerData'
p6
(dp7
sS'org.robofab.postScriptHintData'
p8
(dp9
s."
LayerCount: 2
Fore
SplineSet
321 711 m 257
 53 133 l 257
 226 133 l 257
 362 449 l 257
 507 133 l 257
 680 133 l 257
 396 711 l 257
 321 711 l 257
EndSplineSet
EndChar

StartChar: asciitilde
Encoding: 126 126 151
Width: 582
VWidth: 0
GlyphClass: 2
Flags: HW
PickledData: "(dp1
S'org.pippin.gimp.org.kernagic'
p2
(dp3
S'lstem'
p4
I0
sS'rstem'
p5
I0
ssS'com.typemytype.robofont.layerData'
p6
(dp7
S'b'
(dp8
S'name'
p9
S'asciitilde'
p10
sS'lib'
p11
(dp12
sS'unicodes'
p13
(tsS'width'
p14
I1192
sS'contours'
p15
(tsS'components'
p16
(tsS'anchors'
p17
(tsssS'org.robofab.postScriptHintData'
p18
(dp19
s."
LayerCount: 2
Fore
SplineSet
89 229 m 257
 108 264 137 297 178 297 c 256
 212 297 238 286 271 270 c 256
 316 249 352 234 399 234 c 256
 470 234 533 282 558 331 c 257
 514 404 l 257
 473 359 442 341 407 341 c 256
 382 341 350 353 308 372 c 256
 268 390 225 403 183 403 c 256
 110 403 67 359 42 307 c 257
 89 229 l 257
EndSplineSet
EndChar

StartChar: asterisk
Encoding: 42 42 152
Width: 511
VWidth: 0
GlyphClass: 2
Flags: HW
PickledData: "(dp1
S'org.pippin.gimp.org.kernagic'
p2
(dp3
S'lstem'
p4
I0
sS'rstem'
p5
I0
ssS'com.typemytype.robofont.layerData'
p6
(dp7
sS'org.robofab.postScriptHintData'
p8
(dp9
s."
LayerCount: 2
Fore
SplineSet
175 232 m 257
 256 396 l 257
 341 231 l 257
 340 231 452 296 452 296 c 258
 453 296 355 424 334 452 c 257
 504 492 l 257
 468 615 l 257
 303 543 l 257
 318 743 l 257
 195 743 l 257
 211 543 l 257
 47 615 l 257
 11 492 l 257
 180 452 l 257
 62 296 l 257
 175 232 l 257
EndSplineSet
EndChar

StartChar: at
Encoding: 64 64 153
Width: 989
VWidth: 0
GlyphClass: 2
Flags: HW
PickledData: "(dp1
S'org.pippin.gimp.org.kernagic'
p2
(dp3
S'lstem'
p4
I0
sS'rstem'
p5
I0
ssS'com.typemytype.robofont.layerData'
p6
(dp7
sS'org.robofab.postScriptHintData'
p8
(dp9
s."
LayerCount: 2
Fore
SplineSet
407 312 m 256
 407 408 457 499 537 499 c 256
 550 499 572 497 588 494 c 257
 570 378 l 257
 554 264 527 220 468 220 c 256
 429 220 407 248 407 312 c 256
491 -61 m 256
 595 -61 705 -36 770 14 c 257
 738 92 l 257
 670 53 580 38 493 38 c 256
 307 38 200 171 200 339 c 256
 200 511 316 674 521 674 c 256
 721 674 813 546 813 414 c 256
 813 285 764 221 720 221 c 256
 696 221 680 241 680 278 c 256
 680 341 699 438 713 543 c 257
 677 562 602 587 529 587 c 256
 372 587 284 450 284 320 c 256
 284 216 337 130 459 130 c 256
 524 130 576 176 600 245 c 257
 614 175 688 164 720 135 c 257
 817 135 931 228 931 410 c 256
 931 629 752 776 525 776 c 256
 264 776 74 584 74 341 c 256
 74 85 243 -61 491 -61 c 256
EndSplineSet
EndChar

StartChar: b
Encoding: 98 98 155
Width: 619
VWidth: 0
GlyphClass: 2
Flags: HW
PickledData: "(dp1
S'org.pippin.gimp.org.kernagic'
p2
(dp3
S'lstem'
p4
I0
sS'rstem'
p5
I0
ssS'org.robofab.postScriptHintData'
p6
(dp7
sS'com.typemytype.robofont.guides'
p8
(tsS'com.typemytype.robofont.layerData'
p9
(dp10
sS'com.fontlab.hintData'
p11
(dp12
S'vhints'
p13
((dp14
S'position'
p15
I193
sS'width'
p16
I125
s(dp17
g15
I193
sg16
I94
s(dp18
g15
I1018
sg16
I122
stp19
sS'hhints'
p20
((dp21
g15
I-19
sg16
I92
s(dp22
g15
I982
sg16
I92
stp23
ss."
HStem: -9 45 479 45
VStem: 94 61 94 46 497 60
AnchorPoint: "top" 378 528 basechar 0
LayerCount: 2
Fore
SplineSet
323 102 m 256
 273 102 253 121 236 142 c 257
 236 276 l 258
 236 397 282 426 330 426 c 256
 373 426 404 393 404 268 c 256
 404 146 366 102 323 102 c 256
364 -10 m 256
 509 -10 581 105 581 268 c 256
 581 421 512 538 371 538 c 258
 370 538 l 258
 301 538 256 505 231 460 c 257
 236 561 l 257
 236 762 l 257
 62 752 l 257
 62 0 l 257
 218 0 l 257
 223 66 l 257
 245 29 289 -10 364 -10 c 256
EndSplineSet
EndChar

StartChar: backslash
Encoding: 92 92 156
Width: 457
VWidth: 0
GlyphClass: 2
Flags: HW
PickledData: "(dp1
S'org.pippin.gimp.org.kernagic'
p2
(dp3
S'lstem'
p4
I0
sS'rstem'
p5
I0
ssS'com.typemytype.robofont.layerData'
p6
(dp7
S'b'
(dp8
S'name'
p9
S'backslash'
p10
sS'lib'
p11
(dp12
sS'unicodes'
p13
(tsS'width'
p14
I937
sS'contours'
p15
(tsS'components'
p16
(tsS'anchors'
p17
(tsssS'org.robofab.postScriptHintData'
p18
(dp19
s."
LayerCount: 2
Fore
SplineSet
277 9 m 257
 402 9 l 257
 172 736 l 257
 45 736 l 257
 277 9 l 257
EndSplineSet
EndChar

StartChar: bar
Encoding: 124 124 157
Width: 360
VWidth: 0
GlyphClass: 2
Flags: HW
PickledData: "(dp1
S'org.pippin.gimp.org.kernagic'
p2
(dp3
S'lstem'
p4
I0
sS'rstem'
p5
I0
ssS'com.typemytype.robofont.layerData'
p6
(dp7
S'b'
(dp8
S'name'
p9
S'bar'
p10
sS'lib'
p11
(dp12
sS'unicodes'
p13
(tsS'width'
p14
I681
sS'contours'
p15
(tsS'components'
p16
(tsS'anchors'
p17
(tsssS'org.robofab.postScriptHintData'
p18
(dp19
s."
LayerCount: 2
Fore
SplineSet
132 721 m 257
 132 -248 l 257
 233 -248 l 257
 233 721 l 257
 132 721 l 257
EndSplineSet
EndChar

StartChar: braceleft
Encoding: 123 123 158
Width: 468
VWidth: 0
GlyphClass: 2
Flags: HW
PickledData: "(dp1
S'org.pippin.gimp.org.kernagic'
p2
(dp3
S'lstem'
p4
I0
sS'rstem'
p5
I0
ssS'com.typemytype.robofont.layerData'
p6
(dp7
sS'org.robofab.postScriptHintData'
p8
(dp9
s."
LayerCount: 2
Fore
SplineSet
405 -155 m 257
 405 -63 l 257
 343 -61 315 -56 315 11 c 258
 315 179 l 258
 315 232 307 294 218 312 c 257
 307 330 315 392 315 445 c 258
 315 612 l 258
 315 679 343 685 405 686 c 257
 405 779 l 257
 309 779 198 767 198 649 c 258
 198 460 l 258
 198 409 193 363 92 363 c 257
 92 260 l 257
 194 260 198 213 198 163 c 258
 198 -25 l 258
 198 -143 309 -155 405 -155 c 257
EndSplineSet
EndChar

StartChar: braceright
Encoding: 125 125 159
Width: 468
VWidth: 0
GlyphClass: 2
Flags: HW
PickledData: "(dp1
S'org.pippin.gimp.org.kernagic'
p2
(dp3
S'lstem'
p4
I0
sS'rstem'
p5
I0
ssS'com.typemytype.robofont.layerData'
p6
(dp7
sS'org.robofab.postScriptHintData'
p8
(dp9
s."
LayerCount: 2
Fore
SplineSet
80 -155 m 257
 176 -155 287 -143 287 -25 c 258
 287 163 l 258
 287 213 292 260 393 260 c 257
 393 363 l 257
 292 363 287 409 287 460 c 258
 287 649 l 258
 287 767 176 779 80 779 c 257
 80 686 l 257
 142 685 169 679 169 612 c 258
 169 445 l 258
 169 392 178 330 267 312 c 257
 178 294 169 232 169 179 c 258
 169 11 l 258
 169 -56 142 -61 80 -63 c 257
 80 -155 l 257
EndSplineSet
EndChar

StartChar: bracketleft
Encoding: 91 91 160
Width: 401
VWidth: 0
GlyphClass: 2
Flags: HW
PickledData: "(dp1
S'org.pippin.gimp.org.kernagic'
p2
(dp3
S'lstem'
p4
I0
sS'rstem'
p5
I0
ssS'com.typemytype.robofont.layerData'
p6
(dp7
sS'org.robofab.postScriptHintData'
p8
(dp9
s."
LayerCount: 2
Fore
SplineSet
110 -122 m 257
 329 -122 l 257
 329 -20 l 257
 232 -20 l 257
 232 623 l 257
 329 623 l 257
 329 724 l 257
 110 724 l 257
 110 -122 l 257
EndSplineSet
EndChar

StartChar: bracketright
Encoding: 93 93 161
Width: 471
VWidth: 0
GlyphClass: 2
Flags: HW
PickledData: "(dp1
S'org.pippin.gimp.org.kernagic'
p2
(dp3
S'lstem'
p4
I0
sS'rstem'
p5
I0
ssS'com.typemytype.robofont.layerData'
p6
(dp7
sS'org.robofab.postScriptHintData'
p8
(dp9
s."
LayerCount: 2
Fore
SplineSet
145 -122 m 257
 363 -122 l 257
 363 724 l 257
 145 724 l 257
 145 623 l 257
 241 623 l 257
 241 -20 l 257
 145 -20 l 257
 145 -122 l 257
EndSplineSet
EndChar

StartChar: breve
Encoding: 728 728 162
Width: 457
VWidth: 0
GlyphClass: 4
Flags: HW
PickledData: "(dp1
S'org.robofab.postScriptHintData'
p2
(dp3
sS'com.typemytype.robofont.layerData'
p4
(dp5
s."
AnchorPoint: "top" 218 528 mark 0
LayerCount: 2
Fore
SplineSet
218 645 m 256
 306 645 363 696 363 779 c 257
 271 779 l 257
 271 751 250 734 218 734 c 256
 186 734 166 751 166 779 c 257
 72 779 l 257
 72 696 129 645 218 645 c 256
EndSplineSet
EndChar

StartChar: uni0311
Encoding: 785 785 163
Width: 425
VWidth: 0
GlyphClass: 4
Flags: HW
PickledData: "(dp1
S'org.robofab.postScriptHintData'
p2
(dp3
sS'com.typemytype.robofont.layerData'
p4
(dp5
s."
AnchorPoint: "top" 218 528 mark 0
LayerCount: 2
Fore
SplineSet
71 645 m 257
 165 645 l 257
 165 672 185 689 217 689 c 256
 249 689 271 672 271 645 c 257
 362 645 l 257
 362 728 306 779 217 779 c 256
 128 779 71 728 71 645 c 257
EndSplineSet
EndChar

StartChar: brokenbar
Encoding: 166 166 164
Width: 372
VWidth: 0
GlyphClass: 2
Flags: HW
PickledData: "(dp1
S'org.pippin.gimp.org.kernagic'
p2
(dp3
S'lstem'
p4
I0
sS'rstem'
p5
I0
ssS'com.typemytype.robofont.layerData'
p6
(dp7
S'b'
(dp8
S'name'
p9
S'brokenbar'
p10
sS'lib'
p11
(dp12
sS'unicodes'
p13
(tsS'width'
p14
I653
sS'contours'
p15
(tsS'components'
p16
(tsS'anchors'
p17
(tsssS'org.robofab.postScriptHintData'
p18
(dp19
s."
LayerCount: 2
Fore
SplineSet
123 703 m 257
 123 368 l 257
 233 368 l 257
 233 703 l 257
 123 703 l 257
123 145 m 257
 123 -190 l 257
 233 -190 l 257
 233 145 l 257
 123 145 l 257
EndSplineSet
EndChar

StartChar: bullet
Encoding: 8226 8226 165
Width: 470
VWidth: 0
GlyphClass: 2
Flags: HW
PickledData: "(dp1
S'org.pippin.gimp.org.kernagic'
p2
(dp3
S'lstem'
p4
I0
sS'rstem'
p5
I0
ssS'com.typemytype.robofont.layerData'
p6
(dp7
S'b'
(dp8
S'name'
p9
S'bullet'
p10
sS'lib'
p11
(dp12
sS'unicodes'
p13
(tsS'width'
p14
I908
sS'contours'
p15
(tsS'components'
p16
(tsS'anchors'
p17
(tsssS'org.robofab.postScriptHintData'
p18
(dp19
s."
LayerCount: 2
Fore
SplineSet
229 170 m 256
 328 170 404 245 404 341 c 256
 404 438 331 511 232 511 c 256
 133 511 57 435 57 339 c 256
 57 243 129 170 229 170 c 256
EndSplineSet
EndChar

StartChar: c
Encoding: 99 99 166
Width: 551
VWidth: 0
GlyphClass: 2
Flags: HW
PickledData: "(dp1
S'org.pippin.gimp.org.kernagic'
p2
(dp3
S'lstem'
p4
I0
sS'rstem'
p5
I696
ssS'org.robofab.postScriptHintData'
p6
(dp7
sS'com.typemytype.robofont.guides'
p8
((dp9
S'y'
I417
sS'x'
I962
sS'magnetic'
p10
I5
sS'angle'
p11
F90
sS'isGlobal'
p12
I00
s(dp13
S'y'
I1020
sS'x'
I565
sg10
I5
sg11
F90
sg12
I00
s(dp14
S'y'
I994
sS'x'
I572
sg10
I5
sg11
F90
sg12
I00
stp15
sS'com.typemytype.robofont.layerData'
p16
(dp17
sS'com.fontlab.hintData'
p18
(dp19
S'vhints'
p20
((dp21
S'position'
p22
I128
sS'width'
p23
I120
stp24
sS'hhints'
p25
((dp26
g22
I-19
sg23
I92
s(dp27
g22
I982
sg23
I92
stp28
ss."
HStem: -9 45 479 45
VStem: 62 59
AnchorPoint: "top" 303 528 basechar 0
LayerCount: 2
Fore
SplineSet
321 420 m 256
 363 420 400 394 412 353 c 257
 418 353 l 257
 524 411 l 257
 484 500 416 538 314 538 c 256
 145 538 39 433 39 264 c 256
 39 95 145 -10 314 -10 c 256
 416 -10 484 29 524 118 c 257
 418 175 l 257
 412 175 l 257
 400 134 363 108 322 108 c 258
 321 108 l 258
 266 108 213 154 213 264 c 256
 213 374 266 420 321 420 c 256
EndSplineSet
EndChar

StartChar: caron
Encoding: 711 711 168
Width: 468
VWidth: 0
GlyphClass: 4
Flags: HW
PickledData: "(dp1
S'org.robofab.postScriptHintData'
p2
(dp3
sS'com.typemytype.robofont.layerData'
p4
(dp5
s."
AnchorPoint: "top" 229 528 mark 0
LayerCount: 2
Fore
SplineSet
146 624 m 257
 294 624 l 257
 398 817 l 257
 266 817 l 257
 221 715 l 257
 175 817 l 257
 42 817 l 257
 146 624 l 257
EndSplineSet
EndChar

StartChar: caron.alt
Encoding: 65537 -1 169
Width: 298
VWidth: 0
GlyphClass: 4
Flags: HW
PickledData: "(dp1
S'org.robofab.postScriptHintData'
p2
(dp3
sS'com.typemytype.robofont.layerData'
p4
(dp5
s."
AnchorPoint: "caron.alt" 10 528 mark 0
LayerCount: 2
Fore
SplineSet
167 546 m 257
 264 546 l 257
 296 761 l 257
 169 761 l 257
 167 546 l 257
EndSplineSet
EndChar

StartChar: cedilla
Encoding: 184 184 174
Width: 370
VWidth: 0
GlyphClass: 4
Flags: HW
PickledData: "(dp1
S'org.robofab.postScriptHintData'
p2
(dp3
sS'com.typemytype.robofont.layerData'
p4
(dp5
s."
LayerCount: 2
Fore
SplineSet
219 -205 m 256
 288 -205 343 -166 343 -101 c 256
 343 -47 310 -18 262 -18 c 256
 244 -18 225 -21 204 -29 c 257
 204 -64 l 257
 210 -64 215 -63 220 -63 c 256
 250 -63 263 -76 263 -97 c 256
 263 -118 245 -137 208 -137 c 256
 194 -137 177 -134 157 -127 c 257
 136 -187 l 257
 164 -199 192 -205 219 -205 c 256
EndSplineSet
EndChar

StartChar: cent
Encoding: 162 162 175
Width: 551
VWidth: 0
GlyphClass: 2
Flags: HW
PickledData: "(dp1
S'org.pippin.gimp.org.kernagic'
p2
(dp3
S'lstem'
p4
I0
sS'rstem'
p5
I0
ssS'com.typemytype.robofont.layerData'
p6
(dp7
sS'org.robofab.postScriptHintData'
p8
(dp9
s."
LayerCount: 2
Fore
SplineSet
321 420 m 0
 363 420 400 394 412 353 c 1
 418 353 l 1
 524 411 l 1
 487.610299938 491.967082639 428.046920139 530.724962901 340.792271739 537.061749996 c 1
 348 666 l 1
 276 666 l 1
 275.192912688 536.058942778 l 1
 128.932058835 521.031444288 39 419.665022925 39 264 c 0
 39 108.692116117 128.519873688 7.43396729029 274.187112839 -7.95414793756 c 1
 271 -145 l 1
 337 -145 l 1
 337.78925439 -9.24824499376 l 1
 426.682185014 -3.45217083998 487.194338678 36.1074035593 524 118 c 1
 418 175 l 1
 412 175 l 1
 399.848732804 133.483170415 362.763433445 108 321 108 c 0
 266 108 213 154 213 264 c 0
 213 374 266 420 321 420 c 0
EndSplineSet
EndChar

StartChar: circumflex
Encoding: 710 710 176
Width: 455
VWidth: 0
GlyphClass: 4
Flags: HW
PickledData: "(dp1
S'org.robofab.postScriptHintData'
p2
(dp3
sS'com.typemytype.robofont.layerData'
p4
(dp5
s."
AnchorPoint: "top" 219 528 mark 0
LayerCount: 2
Fore
SplineSet
41 638 m 257
 174 638 l 257
 219 739 l 257
 265 638 l 257
 397 638 l 257
 293 831 l 257
 145 831 l 257
 41 638 l 257
EndSplineSet
EndChar

StartChar: colon
Encoding: 58 58 177
Width: 345
VWidth: 0
GlyphClass: 2
Flags: HW
PickledData: "(dp1
S'org.pippin.gimp.org.kernagic'
p2
(dp3
S'lstem'
p4
I0
sS'rstem'
p5
I0
ssS'com.typemytype.robofont.layerData'
p6
(dp7
S'b'
(dp8
S'name'
p9
S'colon'
p10
sS'lib'
p11
(dp12
sS'unicodes'
p13
(tsS'width'
p14
I653
sS'contours'
p15
(tsS'components'
p16
(tsS'anchors'
p17
(tsssS'org.robofab.postScriptHintData'
p18
(dp19
s."
LayerCount: 2
Fore
SplineSet
176 -3 m 256
 222 -3 260 23 260 76 c 256
 260 131 222 158 176 158 c 256
 130 158 92 131 92 76 c 256
 92 22 131 -3 176 -3 c 256
176 384 m 256
 222 384 260 410 260 463 c 256
 260 518 222 545 176 545 c 256
 130 545 92 518 92 463 c 256
 92 409 131 384 176 384 c 256
EndSplineSet
EndChar

StartChar: comma
Encoding: 44 44 178
Width: 332
VWidth: 0
GlyphClass: 2
Flags: HW
PickledData: "(dp1
S'org.pippin.gimp.org.kernagic'
p2
(dp3
S'lstem'
p4
I0
sS'rstem'
p5
I0
ssS'com.typemytype.robofont.layerData'
p6
(dp7
sS'org.robofab.postScriptHintData'
p8
(dp9
s."
LayerCount: 2
Fore
SplineSet
90 -171 m 257
 193 -171 l 257
 253 51 l 257
 253 137 l 257
 108 137 l 257
 108 106 90 -171 90 -171 c 257
EndSplineSet
EndChar

StartChar: uni0326
Encoding: 806 806 179
Width: 304
VWidth: 0
GlyphClass: 2
Flags: HW
PickledData: "(dp1
S'org.robofab.postScriptHintData'
p2
(dp3
s."
LayerCount: 2
Fore
SplineSet
62 -270 m 257
 169 -270 l 257
 169 -270 239 -51 239 -49 c 257
 103 -49 l 257
 103 -52 62 -270 62 -270 c 257
EndSplineSet
EndChar

StartChar: uni0312
Encoding: 786 786 180
Width: 292
VWidth: 0
GlyphClass: 4
Flags: HW
PickledData: "(dp1
S'org.robofab.postScriptHintData'
p2
(dp3
s."
AnchorPoint: "top" 141 528 mark 0
LayerCount: 2
Fore
SplineSet
72 630 m 257
 67 622 l 257
 212 622 l 257
 212 625 244 874 244 874 c 257
 140 874 l 257
 140 874 72 644 72 630 c 257
EndSplineSet
EndChar

StartChar: copyright
Encoding: 169 169 181
Width: 875
VWidth: 0
GlyphClass: 2
Flags: HW
PickledData: "(dp1
S'org.pippin.gimp.org.kernagic'
p2
(dp3
S'lstem'
p4
I0
sS'rstem'
p5
I0
ssS'com.typemytype.robofont.layerData'
p6
(dp7
sS'org.robofab.postScriptHintData'
p8
(dp9
s."
LayerCount: 2
Fore
SplineSet
434 -27 m 256
 645 -27 817 140 817 356 c 256
 817 572 645 738 434 738 c 256
 223 738 50 572 50 356 c 256
 50 140 223 -27 434 -27 c 256
434 50 m 256
 269 50 135 184 135 356 c 256
 135 527 269 661 434 661 c 256
 599 661 732 527 732 356 c 256
 732 184 599 50 434 50 c 256
444 123 m 256
 493 123 541 136 583 162 c 257
 560 224 l 257
 523 204 486 194 451 194 c 256
 370 194 305 248 305 360 c 256
 305 471 370 526 451 526 c 256
 485 526 523 517 559 497 c 257
 583 559 l 257
 542 585 493 598 444 598 c 256
 326 598 211 519 211 360 c 256
 211 201 326 123 444 123 c 256
EndSplineSet
EndChar

StartChar: currency
Encoding: 164 164 182
Width: 541
VWidth: 0
GlyphClass: 2
Flags: HW
PickledData: "(dp1
S'org.pippin.gimp.org.kernagic'
p2
(dp3
S'lstem'
p4
I0
sS'rstem'
p5
I0
ssS'com.typemytype.robofont.layerData'
p6
(dp7
S'b'
(dp8
S'name'
p9
S'currency'
p10
sS'lib'
p11
(dp12
sS'unicodes'
p13
(tsS'width'
p14
I1164
sS'contours'
p15
(tsS'components'
p16
(tsS'anchors'
p17
(tsssS'org.robofab.postScriptHintData'
p18
(dp19
s."
LayerCount: 2
Fore
SplineSet
399 364 m 256
 399 292 343 236 274 236 c 256
 208 236 151 292 151 364 c 256
 151 435 208 493 274 493 c 256
 342 493 399 435 399 364 c 256
390 533 m 257
 356 559 318 573 274 573 c 256
 232 573 190 557 158 534 c 257
 72 618 l 257
 18 564 l 257
 105 478 l 257
 84 444 72 406 72 364 c 256
 72 322 85 282 105 250 c 257
 18 165 l 257
 72 112 l 257
 156 195 l 257
 189 170 231 157 274 157 c 256
 318 157 357 172 390 197 c 257
 479 112 l 257
 529 166 l 257
 443 250 l 257
 464 284 476 322 476 364 c 256
 476 406 463 446 443 478 c 257
 530 563 l 257
 479 618 l 257
 390 533 l 257
EndSplineSet
EndChar

StartChar: d
Encoding: 100 100 183
Width: 619
VWidth: 0
GlyphClass: 2
Flags: HW
PickledData: "(dp1
S'org.pippin.gimp.org.kernagic'
p2
(dp3
S'lstem'
p4
I0
sS'rstem'
p5
I0
ssS'com.fontlab.hintData'
p6
(dp7
S'vhints'
p8
((dp9
S'position'
p10
I114
sS'width'
p11
I166
s(dp12
g10
I907
sg11
I161
s(dp13
g10
I930
sg11
I138
stp14
sS'hhints'
p15
((dp16
g10
I-19
sg11
I127
s(dp17
g10
I953
sg11
I127
stp18
ssS'com.typemytype.robofont.layerData'
p19
(dp20
sS'org.robofab.postScriptHintData'
p21
(dp22
s."
HStem: -9 62 465 62
VStem: 56 81 443 79 454 67
AnchorPoint: "top" 224 528 basechar 0
AnchorPoint: "caron.alt" 490 534 basechar 0
LayerCount: 2
Fore
SplineSet
296 103 m 256
 253 103 216 134 216 260 c 256
 216 400 260 427 302 427 c 256
 344 427 367 408 384 387 c 257
 384 150 l 257
 367 121 335 103 296 103 c 256
384 752 m 257
 384 556 l 257
 386 478 l 257
 362 510 320 538 256 538 c 256
 111 538 41 423 41 260 c 256
 41 107 110 -10 252 -10 c 256
 328 -10 373 30 397 81 c 257
 401 0 l 257
 557 0 l 257
 557 762 l 257
 384 752 l 257
EndSplineSet
EndChar

StartChar: dagger
Encoding: 8224 8224 184
Width: 566
VWidth: 0
GlyphClass: 2
Flags: HW
PickledData: "(dp1
S'org.pippin.gimp.org.kernagic'
p2
(dp3
S'lstem'
p4
I0
sS'rstem'
p5
I0
ssS'com.typemytype.robofont.layerData'
p6
(dp7
S'b'
(dp8
S'name'
p9
S'dagger'
p10
sS'lib'
p11
(dp12
sS'unicodes'
p13
(tsS'width'
p14
I1050
sS'contours'
p15
(tsS'components'
p16
(tsS'anchors'
p17
(tsssS'org.robofab.postScriptHintData'
p18
(dp19
s."
LayerCount: 2
Fore
SplineSet
203 712 m 257
 203 529 l 257
 53 529 l 257
 53 428 l 257
 203 428 l 257
 203 -53 l 257
 360 -53 l 257
 360 428 l 257
 520 428 l 257
 520 529 l 257
 364 529 l 257
 364 712 l 257
 203 712 l 257
EndSplineSet
EndChar

StartChar: daggerdbl
Encoding: 8225 8225 185
Width: 552
VWidth: 0
GlyphClass: 2
Flags: HW
PickledData: "(dp1
S'org.pippin.gimp.org.kernagic'
p2
(dp3
S'lstem'
p4
I0
sS'rstem'
p5
I0
ssS'com.typemytype.robofont.layerData'
p6
(dp7
S'b'
(dp8
S'name'
p9
S'daggerdbl'
p10
sS'lib'
p11
(dp12
sS'unicodes'
p13
(tsS'width'
p14
I1022
sS'contours'
p15
(tsS'components'
p16
(tsS'anchors'
p17
(tsssS'org.robofab.postScriptHintData'
p18
(dp19
s."
LayerCount: 2
Fore
SplineSet
202 712 m 257
 202 529 l 257
 53 529 l 257
 53 427 l 257
 202 427 l 257
 202 278 l 257
 53 278 l 257
 53 177 l 257
 202 177 l 257
 202 -77 l 257
 360 -77 l 257
 360 177 l 257
 519 177 l 257
 519 278 l 257
 364 278 l 257
 364 427 l 257
 519 427 l 257
 519 529 l 257
 364 529 l 257
 364 712 l 257
 202 712 l 257
EndSplineSet
EndChar

StartChar: uni030F
Encoding: 783 783 186
Width: 540
VWidth: 0
GlyphClass: 4
Flags: HW
PickledData: "(dp1
S'org.robofab.postScriptHintData'
p2
(dp3
sS'com.typemytype.robofont.layerData'
p4
(dp5
s."
AnchorPoint: "top" 283 528 mark 0
LayerCount: 2
Fore
SplineSet
335 615 m 257
 420 615 l 257
 343 812 l 257
 210 812 l 257
 335 615 l 257
156 615 m 257
 235 615 l 257
 165 812 l 257
 20 812 l 257
 156 615 l 257
EndSplineSet
EndChar

StartChar: degree
Encoding: 176 176 189
Width: 404
VWidth: 0
GlyphClass: 2
Flags: HW
PickledData: "(dp1
S'org.pippin.gimp.org.kernagic'
p2
(dp3
S'lstem'
p4
I0
sS'rstem'
p5
I0
ssS'com.typemytype.robofont.layerData'
p6
(dp7
sS'org.robofab.postScriptHintData'
p8
(dp9
s."
LayerCount: 2
Fore
SplineSet
207 440 m 256
 307 440 360 515 360 592 c 256
 360 671 305 739 207 739 c 256
 107 739 52 671 52 592 c 256
 52 514 105 440 207 440 c 256
207 516 m 256
 170 516 136 542 136 591 c 256
 136 638 169 665 207 665 c 256
 242 665 276 638 276 591 c 256
 276 542 243 516 207 516 c 256
EndSplineSet
EndChar

StartChar: dieresis
Encoding: 168 168 190
Width: 539
VWidth: 0
GlyphClass: 4
Flags: HW
PickledData: "(dp1
S'org.robofab.postScriptHintData'
p2
(dp3
sS'com.typemytype.robofont.layerData'
p4
(dp5
s."
AnchorPoint: "top" 267 528 mark 0
LayerCount: 2
Fore
SplineSet
392 597 m 256
 440 597 468 627 468 675 c 256
 468 723 440 753 392 753 c 256
 344 753 313 723 313 675 c 256
 313 627 344 597 392 597 c 256
139 597 m 256
 186 597 215 627 215 675 c 256
 215 723 186 753 139 753 c 256
 91 753 61 723 61 675 c 256
 61 627 91 597 139 597 c 256
EndSplineSet
EndChar

StartChar: divide
Encoding: 247 247 191
Width: 622
VWidth: 0
GlyphClass: 2
Flags: HW
PickledData: "(dp1
S'org.pippin.gimp.org.kernagic'
p2
(dp3
S'lstem'
p4
I0
sS'rstem'
p5
I0
ssS'com.typemytype.robofont.layerData'
p6
(dp7
sS'org.robofab.postScriptHintData'
p8
(dp9
s."
LayerCount: 2
Fore
SplineSet
234 570 m 257
 234 432 l 257
 380 432 l 257
 380 570 l 257
 234 570 l 257
234 154 m 257
 234 9 l 257
 376 9 l 257
 376 154 l 257
 234 154 l 257
40 343 m 257
 40 239 l 257
 569 239 l 257
 569 343 l 257
 40 343 l 257
EndSplineSet
EndChar

StartChar: dollar
Encoding: 36 36 192
Width: 599
VWidth: 0
GlyphClass: 2
Flags: HW
PickledData: "(dp1
S'org.pippin.gimp.org.kernagic'
p2
(dp3
S'lstem'
p4
I0
sS'rstem'
p5
I0
ssS'com.typemytype.robofont.layerData'
p6
(dp7
S'b'
(dp8
S'name'
p9
S'dollar'
p10
sS'lib'
p11
(dp12
sS'unicodes'
p13
(tsS'width'
p14
I1221
sS'contours'
p15
(tsS'components'
p16
(tsS'anchors'
p17
(tsssS'org.robofab.postScriptHintData'
p18
(dp19
s."
LayerCount: 2
Fore
SplineSet
342.303163288 -7.83699042325 m 1
 469.875838566 5.26781780806 560 77.6521686709 560 202 c 0
 560 330 498 374 396 415 c 2
 312 448 l 2
 249 473 226 489 226 530 c 0
 226 579 264 600 306 600 c 0
 339 600 387 576 407 527 c 1
 418 527 l 1
 541 589 l 1
 522.09774931 641.206216191 454.583922956 706.375519225 337 718.874466987 c 1
 337 865 l 1
 257 865 l 1
 257.888180304 719.33843022 l 1
 140.4028052 708.842853116 44 647.868235277 44 515 c 0
 44 405 97 359 175 327 c 2
 284 282 l 2
 359 251 372 230 372 191 c 0
 372 141 341 121 292 121 c 0
 243 121 191 162 165 197 c 1
 148 197 l 1
 37 115 l 1
 71.6661063751 62.0885744801 142.950296527 1.68708636947 263 -8.5041739931 c 1
 263 -137 l 1
 347 -137 l 1
 342.303163288 -7.83699042325 l 1
EndSplineSet
EndChar

StartChar: dotaccent
Encoding: 729 729 193
Width: 311
VWidth: 0
GlyphClass: 4
Flags: HW
PickledData: "(dp1
S'org.robofab.postScriptHintData'
p2
(dp3
sS'com.typemytype.robofont.layerData'
p4
(dp5
s."
AnchorPoint: "top" 156 528 mark 0
LayerCount: 2
Fore
SplineSet
256 712 m 256
 256 766 218 803 157 803 c 256
 96 803 59 766 59 712 c 256
 59 655 96 619 157 619 c 256
 218 619 256 655 256 712 c 256
EndSplineSet
EndChar

StartChar: dotlessi
Encoding: 305 305 194
Width: 300
VWidth: 0
GlyphClass: 2
Flags: HW
PickledData: "(dp1
S'org.pippin.gimp.org.kernagic'
p2
(dp3
S'lstem'
p4
I0
sS'rstem'
p5
I0
ssS'com.typemytype.robofont.layerData'
p6
(dp7
sS'org.robofab.postScriptHintData'
p8
(dp9
s."
AnchorPoint: "top" 155 528 basechar 0
LayerCount: 2
Fore
SplineSet
65 528 m 257
 65 0 l 257
 241 0 l 257
 241 528 l 257
 65 528 l 257
EndSplineSet
EndChar

StartChar: uni0237
Encoding: 567 567 195
Width: 344
VWidth: 0
GlyphClass: 2
Flags: HW
PickledData: "(dp1
S'org.pippin.gimp.org.kernagic'
p2
(dp3
S'lstem'
p4
I0
sS'rstem'
p5
I0
ssS'com.fontlab.hintData'
p6
(dp7
S'vhints'
p8
((dp9
S'position'
p10
I111
sS'width'
p11
I142
stp12
sS'hhints'
p13
((dp14
g10
I-479
sg11
I112
stp15
ssS'com.typemytype.robofont.layerData'
p16
(dp17
sS'org.robofab.postScriptHintData'
p18
(dp19
s."
HStem: -234 55
VStem: 54 69
LayerCount: 2
Fore
SplineSet
95 528 m 257
 95 1 l 258
 95 -72 85 -93 2 -130 c 258
 -43 -150 l 257
 18 -277 l 257
 62 -257 l 258
 192 -199 271 -164 271 -15 c 258
 271 528 l 257
 95 528 l 257
EndSplineSet
EndChar

StartChar: e
Encoding: 101 101 196
Width: 585
VWidth: 0
GlyphClass: 2
Flags: HW
PickledData: "(dp1
S'org.pippin.gimp.org.kernagic'
p2
(dp3
S'lstem'
p4
I0
sS'rstem'
p5
I747
ssS'com.fontlab.hintData'
p6
(dp7
S'hhints'
p8
((dp9
S'position'
p10
I-19
sS'width'
p11
I94
s(dp12
g10
I982
sg11
I92
stp13
ssS'com.typemytype.robofont.layerData'
p14
(dp15
sS'org.robofab.postScriptHintData'
p16
(dp17
s."
HStem: -9 46 479 45
AnchorPoint: "top" 307 528 basechar 0
LayerCount: 2
Fore
SplineSet
215 305 m 257
 219 394 257 428 313 428 c 256
 366 428 394 392 394 305 c 257
 215 305 l 257
323 -10 m 256
 412 -10 492 17 533 56 c 257
 496 145 l 257
 487 145 l 257
 446 119 397 102 343 102 c 256
 273 102 222 140 214 212 c 257
 534 212 l 257
 534 212 540 240 540 282 c 256
 536 432 473 538 305 538 c 256
 143 538 39 433 39 265 c 256
 39 96 149 -10 323 -10 c 256
EndSplineSet
EndChar

StartChar: eight
Encoding: 56 56 204
Width: 672
VWidth: 0
GlyphClass: 2
Flags: HW
PickledData: "(dp1
S'org.pippin.gimp.org.kernagic'
p2
(dp3
S'lstem'
p4
I0
sS'rstem'
p5
I0
ssS'com.typemytype.robofont.layerData'
p6
(dp7
sS'org.robofab.postScriptHintData'
p8
(dp9
s."
LayerCount: 2
Fore
SplineSet
339 409 m 257
 287 431 254 478 254 533 c 256
 254 582 288 613 339 613 c 256
 390 613 420 583 420 533 c 256
 420 478 391 431 339 409 c 257
339 101 m 256
 281 101 254 132 254 197 c 256
 254 265 289 318 339 335 c 257
 389 318 421 266 421 198 c 256
 421 132 398 101 339 101 c 256
339 -10 m 256
 508 -10 606 64 606 191 c 256
 606 286 564 353 493 380 c 257
 556 405 594 457 594 542 c 256
 594 659 484 721 337 721 c 256
 191 721 80 659 80 542 c 256
 80 454 122 402 188 380 c 257
 113 353 67 285 67 191 c 256
 67 64 168 -10 339 -10 c 256
EndSplineSet
EndChar

StartChar: emdash
Encoding: 8212 8212 207
Width: 1093
VWidth: 0
GlyphClass: 2
Flags: HW
PickledData: "(dp1
S'org.robofab.postScriptHintData'
p2
(dp3
sS'com.typemytype.robofont.layerData'
p4
(dp5
s."
LayerCount: 2
Fore
SplineSet
29 220 m 257
 1064 220 l 257
 1064 322 l 257
 29 322 l 257
 29 220 l 257
EndSplineSet
EndChar

StartChar: endash
Encoding: 8211 8211 208
Width: 571
VWidth: 0
GlyphClass: 2
Flags: HW
PickledData: "(dp1
S'org.pippin.gimp.org.kernagic'
p2
(dp3
S'lstem'
p4
I0
sS'rstem'
p5
I0
ssS'com.typemytype.robofont.layerData'
p6
(dp7
sS'org.robofab.postScriptHintData'
p8
(dp9
s."
LayerCount: 2
Fore
SplineSet
67 215 m 257
 505 215 l 257
 505 325 l 257
 67 325 l 257
 67 215 l 257
EndSplineSet
EndChar

StartChar: eng
Encoding: 331 331 209
Width: 607
VWidth: 0
GlyphClass: 2
Flags: HW
PickledData: "(dp1
S'org.robofab.postScriptHintData'
p2
(dp3
sS'com.typemytype.robofont.layerData'
p4
(dp5
s."
LayerCount: 2
Fore
SplineSet
64 0 m 1
 240 0 l 1
 240 304 l 2
 240 392 274 426 320 426 c 0
 364 426 385 399 385 306 c 2
 385 -9 l 2
 385 -121 369 -137 260 -137 c 1
 272 -247 l 1
 497 -239 562 -176 562 -28 c 2
 562 328 l 2
 562 459 500 538 382 538 c 0
 296 538 249 494 224 446 c 1
 215 528 l 1
 64 528 l 1
 64 0 l 1
EndSplineSet
EndChar

StartChar: equal
Encoding: 61 61 211
Width: 619
VWidth: 0
GlyphClass: 2
Flags: HW
PickledData: "(dp1
S'org.pippin.gimp.org.kernagic'
p2
(dp3
S'lstem'
p4
I0
sS'rstem'
p5
I0
ssS'com.typemytype.robofont.layerData'
p6
(dp7
S'b'
(dp8
S'name'
p9
S'equal'
p10
sS'lib'
p11
(dp12
sS'unicodes'
p13
(tsS'width'
p14
I1050
sS'contours'
p15
(tsS'components'
p16
(tsS'anchors'
p17
(tsssS'org.robofab.postScriptHintData'
p18
(dp19
s."
LayerCount: 2
Fore
SplineSet
46 346 m 257
 46 239 l 257
 561 239 l 257
 561 346 l 257
 46 346 l 257
46 557 m 257
 46 450 l 257
 561 450 l 257
 561 557 l 257
 46 557 l 257
EndSplineSet
EndChar

StartChar: estimated
Encoding: 8494 8494 212
Width: 567
VWidth: 0
GlyphClass: 2
Flags: HW
PickledData: "(dp1
S'org.robofab.postScriptHintData'
p2
(dp3
sS'com.typemytype.robofont.layerData'
p4
(dp5
S'b'
(dp6
S'name'
p7
S'estimated'
p8
sS'lib'
p9
(dp10
sS'unicodes'
p11
(tsS'width'
p12
I1223
sS'contours'
p13
(tsS'components'
p14
(tsS'anchors'
p15
(tsss."
LayerCount: 2
Fore
SplineSet
444 287 m 257
 160 287 l 257
 168 412 217 494 300 494 c 256
 400 494 444 399 444 287 c 257
33 257 m 256
 33 105 124 -10 305 -10 c 256
 404 -10 468 32 516 90 c 257
 491 114 l 257
 444 63 392 26 305 26 c 256
 196 26 160 117 160 248 c 257
 520 248 l 257
 520 414 449 523 297 523 c 256
 143 523 33 410 33 257 c 256
EndSplineSet
EndChar

StartChar: eth
Encoding: 240 240 213
Width: 568
VWidth: 0
GlyphClass: 2
Flags: HW
PickledData: "(dp1
S'org.pippin.gimp.org.kernagic'
p2
(dp3
S'lstem'
p4
I0
sS'rstem'
p5
I0
ssS'com.typemytype.robofont.layerData'
p6
(dp7
sS'org.robofab.postScriptHintData'
p8
(dp9
s."
LayerCount: 2
Fore
SplineSet
425 230 m 256
 425 150 376 98 292 98 c 256
 206 98 156 153 156 233 c 256
 156 316 203 366 290 366 c 256
 375 366 425 312 425 230 c 256
78 727 m 257
 176 627 l 257
 95 592 l 257
 128 499 l 257
 246 545 l 257
 258 533 307 480 327 456 c 257
 310 460 280 463 265 463 c 256
 122 463 28 370 28 231 c 256
 28 86 136 -12 290 -12 c 256
 445 -12 547 75 547 227 c 256
 546 299 526 363 496 414 c 256
 457 479 404 534 354 593 c 257
 451 633 l 257
 417 729 l 257
 288 676 l 257
 238 727 l 257
 78 727 l 257
EndSplineSet
EndChar

StartChar: exclam
Encoding: 33 33 214
Width: 373
VWidth: 0
GlyphClass: 2
Flags: HW
PickledData: "(dp1
S'org.pippin.gimp.org.kernagic'
p2
(dp3
S'lstem'
p4
I0
sS'rstem'
p5
I0
ssS'com.typemytype.robofont.layerData'
p6
(dp7
sS'org.robofab.postScriptHintData'
p8
(dp9
s."
LayerCount: 2
Fore
SplineSet
185 -4 m 256
 229 -4 263 35 263 78 c 256
 263 123 229 158 185 158 c 256
 140 158 104 123 104 78 c 256
 104 35 140 -4 185 -4 c 256
158 229 m 257
 220 229 l 257
 250 644 l 257
 250 764 l 257
 123 764 l 257
 123 644 l 257
 158 229 l 257
EndSplineSet
EndChar

StartChar: f
Encoding: 102 102 216
Width: 410
VWidth: 0
GlyphClass: 2
Flags: HW
PickledData: "(dp1
S'org.pippin.gimp.org.kernagic'
p2
(dp3
S'lstem'
p4
I182
sS'rstem'
p5
I417
ssS'com.fontlab.hintData'
p6
(dp7
S'vhints'
p8
((dp9
S'position'
p10
I269
sS'width'
p11
I166
stp12
sS'hhints'
p13
((dp14
g10
I952
sg11
I89
s(dp15
g10
I1358
sg11
I122
stp16
ssS'com.typemytype.robofont.layerData'
p17
(dp18
sS'org.robofab.postScriptHintData'
p19
(dp20
s."
HStem: 465 43 663 60
VStem: 131 81
AnchorPoint: "top" 227 711 basechar 0
LayerCount: 2
Fore
SplineSet
282 743 m 256
 178 743 88 705 88 565 c 258
 88 526 l 257
 20 515 l 257
 17 429 l 257
 88 429 l 257
 88 0 l 257
 264 0 l 257
 264 429 l 257
 393 429 l 257
 393 528 l 257
 264 528 l 257
 264 565 l 258
 264 612 292 629 342 629 c 256
 359 629 377 628 409 624 c 257
 414 728 l 257
 400 731 358 743 282 743 c 256
EndSplineSet
EndChar

StartChar: five
Encoding: 53 53 217
Width: 672
VWidth: 0
GlyphClass: 2
Flags: HW
PickledData: "(dp1
S'org.pippin.gimp.org.kernagic'
p2
(dp3
S'lstem'
p4
I0
sS'rstem'
p5
I0
ssS'com.typemytype.robofont.layerData'
p6
(dp7
sS'org.robofab.postScriptHintData'
p8
(dp9
s."
LayerCount: 2
Fore
SplineSet
335 353 m 256
 395 353 429 300 429 245 c 256
 429 168 393 122 319 122 c 256
 270 122 207 140 176 194 c 257
 167 194 l 257
 82 102 l 257
 133 27 211 -10 339 -10 c 256
 503 -10 592 102 592 237 c 256
 592 348 525 468 366 468 c 256
 317 468 283 455 256 432 c 257
 277 594 l 257
 543 594 l 257
 560 711 l 257
 141 711 l 257
 110 314 l 257
 238 293 l 257
 249 334 279 353 335 353 c 256
EndSplineSet
EndChar

StartChar: florin
Encoding: 402 402 219
Width: 588
VWidth: 0
GlyphClass: 2
Flags: HW
PickledData: "(dp1
S'org.robofab.postScriptHintData'
p2
(dp3
s."
LayerCount: 2
Fore
SplineSet
216 622 m 258
 197 499 l 257
 87 499 l 257
 80 464 l 257
 192 464 l 257
 129 50 l 257
 109 -84 96 -125 28 -125 c 256
 7 -125 -19 -120 -53 -114 c 257
 -68 -172 l 257
 -18 -191 25 -201 64 -201 c 256
 171 -201 237 -125 268 55 c 257
 332 464 l 257
 492 464 l 257
 499 499 l 257
 340 499 l 257
 365 648 l 258
 379 726 414 754 468 754 c 256
 531 754 545 706 553 639 c 257
 629 639 l 257
 624 763 576 845 452 845 c 256
 324 845 239 771 216 622 c 258
EndSplineSet
EndChar

StartChar: foundryicon
Encoding: 65539 -1 220
Width: 657
VWidth: 0
GlyphClass: 2
Flags: HW
PickledData: "(dp1
S'org.robofab.postScriptHintData'
p2
(dp3
s."
LayerCount: 2
Fore
SplineSet
137 1 m 257
 327 136 l 257
 521 1 l 257
 450 225 l 257
 641 369 l 257
 404 369 l 257
 327 593 l 257
 253 369 l 257
 17 369 l 257
 207 225 l 257
 137 1 l 257
237 198 m 257
 237 328 l 257
 289 328 l 257
 372 255 l 257
 372 328 l 257
 423 328 l 257
 423 198 l 257
 372 198 l 257
 289 270 l 257
 289 198 l 257
 237 198 l 257
EndSplineSet
EndChar

StartChar: four
Encoding: 52 52 221
Width: 672
VWidth: 0
GlyphClass: 2
Flags: HW
PickledData: "(dp1
S'org.pippin.gimp.org.kernagic'
p2
(dp3
S'lstem'
p4
I0
sS'rstem'
p5
I0
ssS'com.typemytype.robofont.layerData'
p6
(dp7
sS'org.robofab.postScriptHintData'
p8
(dp9
s."
LayerCount: 2
Fore
SplineSet
180 272 m 257
 341 543 l 257
 341 272 l 257
 180 272 l 257
341 0 m 257
 526 0 l 257
 526 159 l 257
 625 159 l 257
 632 275 l 257
 526 275 l 257
 526 711 l 257
 311 711 l 257
 45 265 l 257
 54 159 l 257
 341 159 l 257
 341 0 l 257
EndSplineSet
EndChar

StartChar: fraction
Encoding: 8260 8260 222
Width: 575
VWidth: 0
GlyphClass: 2
Flags: HW
PickledData: "(dp1
S'org.robofab.postScriptHintData'
p2
(dp3
s."
LayerCount: 2
Fore
SplineSet
22 0 m 257
 128 0 l 257
 631 768 l 257
 531 768 l 257
 22 0 l 257
EndSplineSet
EndChar

StartChar: g
Encoding: 103 103 223
Width: 613
VWidth: 0
GlyphClass: 2
Flags: HW
PickledData: "(dp1
S'org.pippin.gimp.org.kernagic'
p2
(dp3
S'lstem'
p4
I0
sS'rstem'
p5
I0
ssS'com.fontlab.hintData'
p6
(dp7
S'vhints'
p8
((dp9
S'position'
p10
I128
sS'width'
p11
I122
s(dp12
g10
I977
sg11
I125
s(dp13
g10
I977
sg11
I36
stp14
sS'hhints'
p15
((dp16
g10
I-426
sg11
I101
s(dp17
g10
I0
sg11
I93
s(dp18
g10
I982
sg11
I92
stp19
ssS'com.typemytype.robofont.layerData'
p20
(dp21
sS'org.robofab.postScriptHintData'
p22
(dp23
s."
HStem: -208 49 0 45 479 45
VStem: 62 60 477 61 477 18
AnchorPoint: "top" 283 528 basechar 0
LayerCount: 2
Fore
SplineSet
300 102 m 256
 248 102 214 151 214 274 c 256
 214 406 266 426 303 426 c 256
 345 426 362 413 383 391 c 257
 383 130 l 257
 364 113 330 102 300 102 c 256
397 -13 m 256
 397 -105 335 -138 251 -138 c 256
 211 -138 166 -130 121 -116 c 257
 107 -116 l 257
 95 -228 l 257
 152 -244 216 -250 285 -250 c 256
 432 -250 555 -178 555 -6 c 258
 555 528 l 257
 384 528 l 257
 384 484 l 257
 360 512 322 538 260 538 c 256
 157 538 39 465 39 275 c 256
 39 46 161 -1 254 -1 c 256
 327 -1 368 24 391 49 c 257
 396 11 l 258
 397 3 397 -5 397 -13 c 256
EndSplineSet
EndChar

StartChar: germandbls
Encoding: 223 223 229
Width: 653
VWidth: 0
GlyphClass: 2
Flags: HW
PickledData: "(dp1
S'org.pippin.gimp.org.kernagic'
p2
(dp3
S'lstem'
p4
I0
sS'rstem'
p5
I0
ssS'com.typemytype.robofont.layerData'
p6
(dp7
S'b'
(dp8
S'name'
p9
S'germandbls'
p10
sS'lib'
p11
(dp12
sS'unicodes'
p13
(tsS'width'
p14
I1278
sS'contours'
p15
(tsS'components'
p16
(tsS'anchors'
p17
(tsssS'org.robofab.postScriptHintData'
p18
(dp19
s."
LayerCount: 2
Fore
SplineSet
445 -10 m 256
 576 -10 636 52 636 160 c 256
 636 317 452 346 452 371 c 256
 452 393 558 429 558 542 c 256
 558 662 449 718 315 718 c 256
 167 718 59 631 59 486 c 258
 59 -0 l 257
 235 -0 l 257
 235 466 l 258
 235 547 260 597 326 597 c 256
 368 597 396 583 396 541 c 256
 396 460 314 440 314 355 c 256
 314 261 450 254 450 164 c 256
 450 124 426 108 392 108 c 256
 362 108 326 121 308 131 c 257
 276 25 l 257
 338 1 398 -10 445 -10 c 256
EndSplineSet
EndChar

StartChar: grave
Encoding: 96 96 230
Width: 526
VWidth: 0
GlyphClass: 4
Flags: HW
PickledData: "(dp1
S'org.robofab.postScriptHintData'
p2
(dp3
sS'com.typemytype.robofont.layerData'
p4
(dp5
s."
AnchorPoint: "top" 273 528 mark 0
LayerCount: 2
Fore
SplineSet
207 589 m 257
 303 589 l 257
 218 788 l 257
 41 788 l 257
 207 589 l 257
EndSplineSet
EndChar

StartChar: greater
Encoding: 62 62 231
Width: 540
VWidth: 0
GlyphClass: 2
Flags: HW
PickledData: "(dp1
S'org.pippin.gimp.org.kernagic'
p2
(dp3
S'lstem'
p4
I0
sS'rstem'
p5
I0
ssS'com.typemytype.robofont.layerData'
p6
(dp7
S'b'
(dp8
S'name'
p9
S'greater'
p10
sS'lib'
p11
(dp12
sS'unicodes'
p13
(tsS'width'
p14
I1107
sS'contours'
p15
(tsS'components'
p16
(tsS'anchors'
p17
(tsssS'org.robofab.postScriptHintData'
p18
(dp19
s."
LayerCount: 2
Fore
SplineSet
41 510 m 257
 337 356 l 257
 41 216 l 257
 41 92 l 257
 502 318 l 257
 502 387 l 257
 41 629 l 257
 41 510 l 257
EndSplineSet
EndChar

StartChar: greaterequal
Encoding: 8805 8805 232
Width: 582
VWidth: 0
GlyphClass: 2
Flags: HW
PickledData: "(dp1
S'org.pippin.gimp.org.kernagic'
p2
(dp3
S'lstem'
p4
I0
sS'rstem'
p5
I0
ssS'com.typemytype.robofont.layerData'
p6
(dp7
S'b'
(dp8
S'name'
p9
S'greaterequal'
p10
sS'lib'
p11
(dp12
sS'unicodes'
p13
(tsS'width'
p14
I1192
sS'contours'
p15
(tsS'components'
p16
(tsS'anchors'
p17
(tsssS'org.robofab.postScriptHintData'
p18
(dp19
s."
LayerCount: 2
Fore
SplineSet
67 1 m 257
 522 1 l 257
 522 88 l 257
 67 88 l 257
 67 1 l 257
69 105 m 257
 521 337 l 257
 521 400 l 257
 70 637 l 257
 70 527 l 257
 406 368 l 257
 69 217 l 257
 69 105 l 257
EndSplineSet
EndChar

StartChar: guillemotleft
Encoding: 171 171 233
Width: 511
VWidth: 0
GlyphClass: 2
Flags: HW
PickledData: "(dp1
S'org.pippin.gimp.org.kernagic'
p2
(dp3
S'lstem'
p4
I0
sS'rstem'
p5
I0
ssS'com.typemytype.robofont.layerData'
p6
(dp7
S'b'
(dp8
S'name'
p9
S'guillemotleft'
p10
sS'lib'
p11
(dp12
sS'unicodes'
p13
(tsS'width'
p14
I994
sS'contours'
p15
(tsS'components'
p16
(tsS'anchors'
p17
(tsssS'org.robofab.postScriptHintData'
p18
(dp19
s."
LayerCount: 2
Fore
SplineSet
385 63 m 257
 477 63 l 257
 355 281 l 257
 479 498 l 257
 385 498 l 257
 229 279 l 257
 385 63 l 257
174 63 m 257
 266 63 l 257
 144 281 l 257
 268 498 l 257
 175 498 l 257
 19 279 l 257
 174 63 l 257
EndSplineSet
EndChar

StartChar: guillemotright
Encoding: 187 187 234
Width: 511
VWidth: 0
GlyphClass: 2
Flags: HW
PickledData: "(dp1
S'org.pippin.gimp.org.kernagic'
p2
(dp3
S'lstem'
p4
I0
sS'rstem'
p5
I0
ssS'com.typemytype.robofont.layerData'
p6
(dp7
sS'org.robofab.postScriptHintData'
p8
(dp9
s."
LayerCount: 2
Fore
SplineSet
324 63 m 257
 483 283 l 257
 328 498 l 257
 240 498 l 257
 356 279 l 257
 231 63 l 257
 324 63 l 257
121 63 m 257
 279 283 l 257
 124 498 l 257
 34 498 l 257
 153 279 l 257
 27 63 l 257
 121 63 l 257
EndSplineSet
EndChar

StartChar: guilsinglleft
Encoding: 8249 8249 235
Width: 449
VWidth: 0
GlyphClass: 2
Flags: HW
PickledData: "(dp1
S'org.robofab.postScriptHintData'
p2
(dp3
s."
LayerCount: 2
Fore
SplineSet
234 83 m 257
 333 83 l 257
 207 290 l 257
 335 506 l 257
 238 506 l 257
 102 292 l 257
 234 83 l 257
EndSplineSet
EndChar

StartChar: guilsinglright
Encoding: 8250 8250 236
Width: 374
VWidth: 0
GlyphClass: 2
Flags: HW
PickledData: "(dp1
S'org.pippin.gimp.org.kernagic'
p2
(dp3
S'lstem'
p4
I0
sS'rstem'
p5
I0
ssS'com.typemytype.robofont.layerData'
p6
(dp7
S'b'
(dp8
S'name'
p9
S'guilsinglright'
p10
sS'lib'
p11
(dp12
sS'unicodes'
p13
(tsS'width'
p14
I766
sS'contours'
p15
(tsS'components'
p16
(tsS'anchors'
p17
(tsssS'org.robofab.postScriptHintData'
p18
(dp19
s."
LayerCount: 2
Fore
SplineSet
65 83 m 257
 163 83 l 257
 300 286 l 257
 171 484 l 257
 73 484 l 257
 194 287 l 257
 65 83 l 257
EndSplineSet
EndChar

StartChar: h
Encoding: 104 104 237
Width: 621
VWidth: 0
GlyphClass: 2
Flags: HW
PickledData: "(dp1
S'org.pippin.gimp.org.kernagic'
p2
(dp3
S'lstem'
p4
I0
sS'rstem'
p5
I0
ssS'com.fontlab.hintData'
p6
(dp7
S'vhints'
p8
((dp9
S'position'
p10
I193
sS'width'
p11
I122
s(dp12
g10
I910
sg11
I122
stp13
sS'hhints'
p14
((dp15
g10
I982
sg11
I92
stp16
ssS'com.typemytype.robofont.layerData'
p17
(dp18
sS'org.robofab.postScriptHintData'
p19
(dp20
s."
HStem: 479 45
VStem: 94 60 444 60
AnchorPoint: "top" 261 743 basechar 0
LayerCount: 2
Fore
SplineSet
67 0 m 257
 243 0 l 257
 243 303 l 258
 243 390 276 426 322 426 c 256
 366 426 388 400 388 306 c 258
 388 0 l 257
 564 0 l 257
 564 329 l 258
 564 459 511 538 393 538 c 256
 310 538 265 498 240 441 c 257
 243 566 l 257
 243 762 l 257
 67 752 l 257
 67 0 l 257
EndSplineSet
EndChar

StartChar: hungarumlaut
Encoding: 733 733 240
Width: 479
VWidth: 0
GlyphClass: 4
Flags: HW
PickledData: "(dp1
S'org.robofab.postScriptHintData'
p2
(dp3
sS'com.typemytype.robofont.layerData'
p4
(dp5
s."
AnchorPoint: "top" 196 528 mark 0
LayerCount: 2
Fore
SplineSet
244 615 m 257
 323 615 l 257
 460 812 l 257
 315 812 l 257
 244 615 l 257
60 615 m 257
 144 615 l 257
 269 812 l 257
 136 812 l 257
 60 615 l 257
EndSplineSet
EndChar

StartChar: hyphen
Encoding: 45 45 241
Width: 468
VWidth: 0
GlyphClass: 4
Flags: HW
PickledData: "(dp1
S'org.pippin.gimp.org.kernagic'
p2
(dp3
S'lstem'
p4
I0
sS'rstem'
p5
I0
ssS'com.typemytype.robofont.layerData'
p6
(dp7
sS'org.robofab.postScriptHintData'
p8
(dp9
s."
LayerCount: 2
Fore
SplineSet
70 206 m 257
 403 206 l 257
 403 315 l 257
 70 315 l 257
 70 206 l 257
EndSplineSet
EndChar

StartChar: i
Encoding: 105 105 242
Width: 318
VWidth: 0
GlyphClass: 2
Flags: HW
PickledData: "(dp1
S'org.robofab.postScriptHintData'
p2
(dp3
sS'com.typemytype.robofont.layerData'
p4
(dp5
s."
LayerCount: 2
Fore
SplineSet
259 712 m 256
 259 766 222 803 161 803 c 256
 100 803 62 766 62 712 c 256
 62 655 100 619 161 619 c 256
 222 619 259 655 259 712 c 256
70 528 m 257
 70 0 l 257
 246 0 l 257
 246 528 l 257
 70 528 l 257
EndSplineSet
EndChar

StartChar: infinity
Encoding: 8734 8734 253
Width: 871
VWidth: 0
GlyphClass: 2
Flags: HW
PickledData: "(dp1
S'org.pippin.gimp.org.kernagic'
p2
(dp3
S'lstem'
p4
I0
sS'rstem'
p5
I0
ssS'com.typemytype.robofont.layerData'
p6
(dp7
S'b'
(dp8
S'name'
p9
S'infinity'
p10
sS'lib'
p11
(dp12
sS'unicodes'
p13
(tsS'width'
p14
I1647
sS'contours'
p15
(tsS'components'
p16
(tsS'anchors'
p17
(tsssS'org.robofab.postScriptHintData'
p18
(dp19
s."
LayerCount: 2
Fore
SplineSet
727 332 m 256
 727 268 701 227 645 227 c 256
 600 227 565 256 517 319 c 257
 555 370 596 409 643 409 c 256
 692 409 727 373 727 332 c 256
364 318 m 257
 324 264 280 227 234 227 c 256
 181 227 144 273 144 318 c 256
 144 367 177 409 230 409 c 256
 282 409 325 374 364 318 c 257
439 373 m 257
 378 455 315 510 231 510 c 256
 134 510 56 430 56 330 c 256
 56 220 122 125 233 125 c 256
 316 125 380 181 439 261 c 257
 507 170 568 125 644 125 c 256
 742 125 818 206 818 321 c 256
 818 430 756 510 645 510 c 256
 559 510 496 452 439 373 c 257
EndSplineSet
EndChar

StartChar: integral
Encoding: 8747 8747 254
Width: 361
VWidth: 0
GlyphClass: 2
Flags: HW
PickledData: "(dp1
S'org.pippin.gimp.org.kernagic'
p2
(dp3
S'lstem'
p4
I0
sS'rstem'
p5
I0
ssS'com.typemytype.robofont.layerData'
p6
(dp7
S'b'
(dp8
S'name'
p9
S'integral'
p10
sS'lib'
p11
(dp12
sS'unicodes'
p13
(tsS'width'
p14
I994
sS'contours'
p15
(tsS'components'
p16
(tsS'anchors'
p17
(tsssS'org.robofab.postScriptHintData'
p18
(dp19
s."
LayerCount: 2
Fore
SplineSet
102 580 m 258
 102 -21 l 258
 102 -109 63 -113 31 -113 c 256
 17 -113 1 -109 -17 -107 c 257
 -17 -233 l 257
 18 -242 47 -246 71 -246 c 256
 184 -246 247 -157 247 -18 c 258
 247 584 l 258
 247 662 261 692 315 692 c 256
 325 692 339 690 352 689 c 257
 352 787 l 257
 317 795 288 801 262 801 c 256
 154 801 102 716 102 580 c 258
EndSplineSet
EndChar

StartChar: j
Encoding: 106 106 257
Width: 339
VWidth: 0
GlyphClass: 2
Flags: HW
PickledData: "(dp1
S'org.robofab.postScriptHintData'
p2
(dp3
sS'com.typemytype.robofont.layerData'
p4
(dp5
s."
LayerCount: 2
Fore
SplineSet
284 712 m 256
 284 766 247 803 186 803 c 256
 125 803 87 766 87 712 c 256
 87 655 125 619 186 619 c 256
 247 619 284 655 284 712 c 256
92 528 m 257
 92 1 l 258
 92 -72 83 -93 -0 -130 c 258
 -46 -150 l 257
 16 -277 l 257
 60 -257 l 258
 190 -199 268 -164 268 -15 c 258
 268 528 l 257
 92 528 l 257
EndSplineSet
EndChar

StartChar: k
Encoding: 107 107 259
Width: 594
VWidth: 0
GlyphClass: 2
Flags: HW
PickledData: "(dp1
S'org.pippin.gimp.org.kernagic'
p2
(dp3
S'lstem'
p4
I0
sS'rstem'
p5
I671
ssS'com.typemytype.robofont.layerData'
p6
(dp7
sS'org.robofab.postScriptHintData'
p8
(dp9
s."
LayerCount: 2
Fore
SplineSet
67 0 m 257
 243 0 l 257
 243 208 l 257
 266 232 l 257
 413 0 l 257
 589 0 l 257
 589 15 l 257
 397 299 l 257
 582 520 l 257
 582 528 l 257
 399 528 l 257
 240 342 l 257
 243 410 l 257
 243 762 l 257
 67 752 l 257
 67 0 l 257
EndSplineSet
EndChar

StartChar: kgreenlandic
Encoding: 312 312 261
Width: 580
VWidth: 0
GlyphClass: 2
Flags: HW
PickledData: "(dp1
S'org.robofab.postScriptHintData'
p2
(dp3
s."
LayerCount: 2
Fore
SplineSet
53 0 m 257
 187 0 l 257
 187 175 l 257
 224 214 l 257
 381 0 l 257
 536 0 l 257
 536 3 l 257
 328 287 l 257
 525 520 l 257
 525 528 l 257
 369 528 l 257
 184 305 l 257
 187 411 l 257
 187 528 l 257
 53 528 l 257
 53 0 l 257
EndSplineSet
EndChar

StartChar: l
Encoding: 108 108 262
Width: 375
VWidth: 0
GlyphClass: 2
Flags: HW
PickledData: "(dp1
S'org.pippin.gimp.org.kernagic'
p2
(dp3
S'lstem'
p4
I0
sS'rstem'
p5
I238
ssS'com.fontlab.hintData'
p6
(dp7
S'vhints'
p8
((dp9
S'position'
p10
I193
sS'width'
p11
I122
stp12
sS'hhints'
p13
((dp14
g10
I-11
sg11
I87
stp15
ssS'com.typemytype.robofont.layerData'
p16
(dp17
sS'org.robofab.postScriptHintData'
p18
(dp19
s."
HStem: -5 42
VStem: 94 60
AnchorPoint: "top" 155 759 basechar 0
LayerCount: 2
Fore
SplineSet
307 -5 m 258
 354 -3 l 257
 360 107 l 257
 360 107 l 258
 354 107 289 112 289 112 c 258
 251 114 241 135 241 161 c 258
 241 762 l 257
 65 752 l 257
 65 176 l 258
 65 46 123 -5 277 -5 c 256
 287 -5 297 -5 307 -5 c 258
EndSplineSet
EndChar

StartChar: less
Encoding: 60 60 267
Width: 540
VWidth: 0
GlyphClass: 2
Flags: HW
PickledData: "(dp1
S'org.pippin.gimp.org.kernagic'
p2
(dp3
S'lstem'
p4
I0
sS'rstem'
p5
I0
ssS'com.typemytype.robofont.layerData'
p6
(dp7
S'b'
(dp8
S'name'
p9
S'less'
p10
sS'lib'
p11
(dp12
sS'unicodes'
p13
(tsS'width'
p14
I1107
sS'contours'
p15
(tsS'components'
p16
(tsS'anchors'
p17
(tsssS'org.robofab.postScriptHintData'
p18
(dp19
s."
LayerCount: 2
Fore
SplineSet
489 91 m 257
 489 215 l 257
 192 356 l 257
 489 510 l 257
 489 629 l 257
 27 387 l 257
 27 318 l 257
 489 91 l 257
EndSplineSet
EndChar

StartChar: lessequal
Encoding: 8804 8804 268
Width: 582
VWidth: 0
GlyphClass: 2
Flags: HW
PickledData: "(dp1
S'org.robofab.postScriptHintData'
p2
(dp3
sS'com.typemytype.robofont.layerData'
p4
(dp5
s."
LayerCount: 2
Fore
SplineSet
55 -3 m 257
 514 -3 l 257
 514 83 l 257
 55 83 l 257
 55 -3 l 257
512 159 m 257
 512 271 l 257
 199 396 l 257
 514 526 l 257
 514 636 l 257
 64 428 l 257
 64 363 l 257
 512 159 l 257
EndSplineSet
EndChar

StartChar: logicalnot
Encoding: 172 172 269
Width: 583
VWidth: 0
GlyphClass: 2
Flags: HW
PickledData: "(dp1
S'org.pippin.gimp.org.kernagic'
p2
(dp3
S'lstem'
p4
I0
sS'rstem'
p5
I0
ssS'com.typemytype.robofont.layerData'
p6
(dp7
sS'org.robofab.postScriptHintData'
p8
(dp9
s."
LayerCount: 2
Fore
SplineSet
45 417 m 257
 45 311 l 257
 431 311 l 257
 431 122 l 257
 536 122 l 257
 536 417 l 257
 45 417 l 257
EndSplineSet
EndChar

StartChar: lozenge
Encoding: 9674 9674 270
Width: 594
VWidth: 0
GlyphClass: 2
Flags: HW
PickledData: "(dp1
S'org.pippin.gimp.org.kernagic'
p2
(dp3
S'lstem'
p4
I0
sS'rstem'
p5
I0
ssS'com.typemytype.robofont.layerData'
p6
(dp7
S'b'
(dp8
S'name'
p9
S'lozenge'
p10
sS'lib'
p11
(dp12
sS'unicodes'
p13
(tsS'width'
p14
I1164
sS'contours'
p15
(tsS'components'
p16
(tsS'anchors'
p17
(tsssS'org.robofab.postScriptHintData'
p18
(dp19
s."
LayerCount: 2
Fore
SplineSet
457 361 m 257
 356 172 392 266 291 77 c 257
 191 265 236 171 138 360 c 257
 238 549 196 456 298 644 c 257
 395 455 359 549 457 361 c 257
264 743 m 257
 46 359 l 257
 261 -22 l 257
 327 -22 l 257
 547 359 l 257
 332 743 l 257
 264 743 l 257
EndSplineSet
EndChar

StartChar: m
Encoding: 109 109 272
Width: 934
VWidth: 0
GlyphClass: 2
Flags: HW
PickledData: "(dp1
S'org.pippin.gimp.org.kernagic'
p2
(dp3
S'lstem'
p4
I0
sS'rstem'
p5
I0
ssS'com.fontlab.hintData'
p6
(dp7
S'vhints'
p8
((dp9
S'position'
p10
I193
sS'width'
p11
I122
s(dp12
g10
I193
sg11
I98
s(dp13
g10
I845
sg11
I122
s(dp14
g10
I1483
sg11
I122
stp15
sS'hhints'
p16
((dp17
g10
I982
sg11
I92
stp18
ssS'com.typemytype.robofont.layerData'
p19
(dp20
sS'org.robofab.postScriptHintData'
p21
(dp22
s."
HStem: 479 45
VStem: 94 60 94 48 413 60 724 60
AnchorPoint: "top" 522 528 basechar 0
LayerCount: 2
Fore
SplineSet
62 0 m 257
 238 0 l 257
 238 305 l 257
 239 392 273 426 316 426 c 256
 360 426 382 400 382 304 c 258
 382 0 l 257
 558 0 l 257
 558 327 l 257
 559 381 594 426 636 426 c 256
 681 426 702 397 702 305 c 258
 702 0 l 257
 877 0 l 257
 877 330 l 258
 877 459 815 538 698 538 c 256
 610 538 563 492 538 440 c 257
 516 516 461 538 388 538 c 256
 305 538 249 494 223 443 c 257
 213 528 l 257
 62 528 l 257
 62 0 l 257
EndSplineSet
EndChar

StartChar: macron
Encoding: 175 175 273
Width: 507
VWidth: 0
GlyphClass: 4
Flags: HW
PickledData: "(dp1
S'org.robofab.postScriptHintData'
p2
(dp3
sS'com.typemytype.robofont.layerData'
p4
(dp5
s."
AnchorPoint: "top" 253 528 mark 0
LayerCount: 2
Fore
SplineSet
78 618 m 257
 427 618 l 257
 427 693 l 257
 78 693 l 257
 78 618 l 257
EndSplineSet
EndChar

StartChar: minus
Encoding: 8722 8722 275
Width: 594
VWidth: 0
GlyphClass: 2
Flags: HW
PickledData: "(dp1
S'org.pippin.gimp.org.kernagic'
p2
(dp3
S'lstem'
p4
I0
sS'rstem'
p5
I0
ssS'com.typemytype.robofont.layerData'
p6
(dp7
sS'org.robofab.postScriptHintData'
p8
(dp9
s."
LayerCount: 2
Fore
SplineSet
45 325 m 257
 45 223 l 257
 555 223 l 257
 555 325 l 257
 45 325 l 257
EndSplineSet
EndChar

StartChar: multiply
Encoding: 215 215 276
Width: 485
VWidth: 0
GlyphClass: 2
Flags: HW
PickledData: "(dp1
S'org.pippin.gimp.org.kernagic'
p2
(dp3
S'lstem'
p4
I0
sS'rstem'
p5
I0
ssS'com.typemytype.robofont.layerData'
p6
(dp7
sS'org.robofab.postScriptHintData'
p8
(dp9
s."
LayerCount: 2
Fore
SplineSet
45 388 m 257
 172 252 l 257
 45 120 l 257
 115 42 l 257
 246 176 l 257
 375 44 l 257
 447 121 l 257
 447 121 355 215 319 252 c 257
 446 388 l 257
 376 462 l 257
 246 328 l 257
 114 462 l 257
 45 388 l 257
EndSplineSet
EndChar

StartChar: n
Encoding: 110 110 277
Width: 618
VWidth: 0
GlyphClass: 2
Flags: HW
PickledData: "(dp1
S'org.pippin.gimp.org.kernagic'
p2
(dp3
S'lstem'
p4
I0
sS'rstem'
p5
I0
ssS'com.fontlab.hintData'
p6
(dp7
S'vhints'
p8
((dp9
S'position'
p10
I193
sS'width'
p11
I122
s(dp12
g10
I903
sg11
I122
stp13
sS'hhints'
p14
((dp15
g10
I0
sg11
I22
s(dp16
g10
I982
sg11
I92
s(dp17
g10
I1034
sg11
I21
stp18
ssS'com.typemytype.robofont.layerData'
p19
(dp20
sS'org.robofab.postScriptHintData'
p21
(dp22
s."
HStem: 0 11 479 45 505 10
VStem: 94 60 441 60
AnchorPoint: "top" 343 528 basechar 0
LayerCount: 2
Fore
SplineSet
64 0 m 257
 240 0 l 257
 240 304 l 258
 240 392 274 426 320 426 c 256
 364 426 385 399 385 306 c 258
 385 0 l 257
 562 0 l 257
 562 328 l 258
 562 459 500 538 382 538 c 256
 296 538 249 494 224 446 c 257
 215 528 l 257
 64 528 l 257
 64 0 l 257
EndSplineSet
EndChar

StartChar: nine
Encoding: 57 57 282
Width: 672
VWidth: 0
GlyphClass: 2
Flags: HW
PickledData: "(dp1
S'org.pippin.gimp.org.kernagic'
p2
(dp3
S'lstem'
p4
I0
sS'rstem'
p5
I0
ssS'com.typemytype.robofont.layerData'
p6
(dp7
sS'org.robofab.postScriptHintData'
p8
(dp9
s."
LayerCount: 2
Fore
SplineSet
343 370 m 258
 342 370 l 258
 284 370 250 416 250 487 c 256
 250 555 286 600 344 600 c 256
 402 600 438 555 438 487 c 256
 438 413 398 370 343 370 c 258
159 0 m 257
 348 0 l 257
 541 275 l 258
 586 339 616 398 616 483 c 256
 616 622 517 721 344 721 c 256
 175 721 73 628 73 493 c 256
 73 337 187 272 287 272 c 256
 316 272 345 280 367 290 c 257
 293 203 228 107 159 15 c 257
 159 0 l 257
EndSplineSet
EndChar

StartChar: notequal
Encoding: 8800 8800 283
Width: 580
VWidth: 0
GlyphClass: 2
Flags: HW
PickledData: "(dp1
S'org.pippin.gimp.org.kernagic'
p2
(dp3
S'lstem'
p4
I0
sS'rstem'
p5
I0
ssS'com.typemytype.robofont.layerData'
p6
(dp7
S'b'
(dp8
S'name'
p9
S'notequal'
p10
sS'lib'
p11
(dp12
sS'unicodes'
p13
(tsS'width'
p14
I1079
sS'contours'
p15
(tsS'components'
p16
(tsS'anchors'
p17
(tsssS'org.robofab.postScriptHintData'
p18
(dp19
s."
LayerCount: 2
Fore
SplineSet
190 20 m 257
 255 154 l 257
 529 154 l 257
 522 249 l 257
 299 249 l 257
 349 349 l 257
 529 349 l 257
 521 451 l 257
 393 451 l 257
 449 562 l 257
 357 576 l 257
 293 451 l 257
 27 451 l 257
 34 350 l 257
 251 350 l 257
 201 249 l 257
 29 249 l 257
 34 154 l 257
 158 154 l 257
 100 35 l 257
 190 20 l 257
EndSplineSet
EndChar

StartChar: numbersign
Encoding: 35 35 285
Width: 541
VWidth: 0
GlyphClass: 2
Flags: HW
PickledData: "(dp1
S'org.pippin.gimp.org.kernagic'
p2
(dp3
S'lstem'
p4
I0
sS'rstem'
p5
I0
ssS'com.typemytype.robofont.layerData'
p6
(dp7
sS'org.robofab.postScriptHintData'
p8
(dp9
s."
LayerCount: 2
Fore
SplineSet
210 279 m 257
 241 461 l 257
 346 461 l 257
 314 279 l 257
 210 279 l 257
75 0 m 257
 159 0 l 257
 197 214 l 257
 304 214 l 257
 265 0 l 257
 351 0 l 257
 391 214 l 257
 469 214 l 257
 477 279 l 257
 402 279 l 257
 433 461 l 257
 507 461 l 257
 517 528 l 257
 444 528 l 257
 478 715 l 257
 390 715 l 257
 358 528 l 257
 251 528 l 257
 285 715 l 257
 199 715 l 257
 167 528 l 257
 71 528 l 257
 62 461 l 257
 156 461 l 257
 124 279 l 257
 41 279 l 257
 31 214 l 257
 113 214 l 257
 75 0 l 257
EndSplineSet
EndChar

StartChar: o
Encoding: 111 111 286
Width: 612
VWidth: 0
GlyphClass: 2
Flags: HW
PickledData: "(dp1
S'org.pippin.gimp.org.kernagic'
p2
(dp3
S'lstem'
p4
I0
sS'rstem'
p5
I0
ssS'org.robofab.postScriptHintData'
p6
(dp7
sS'com.typemytype.robofont.guides'
p8
((dp9
S'y'
I1093
sS'x'
I582
sS'magnetic'
p10
I5
sS'angle'
p11
F90
sS'isGlobal'
p12
I00
stp13
sS'com.typemytype.robofont.layerData'
p14
(dp15
sS'com.fontlab.hintData'
p16
(dp17
S'vhints'
p18
((dp19
S'position'
p20
I128
sS'width'
p21
I120
s(dp22
g20
I982
sg21
I120
stp23
sS'hhints'
p24
((dp25
g20
I-19
sg21
I92
s(dp26
g20
I982
sg21
I92
stp27
ss."
HStem: -9 45 479 45
VStem: 62 59 479 59
AnchorPoint: "top" 307 528 basechar 0
LayerCount: 2
Fore
SplineSet
307 -11 m 256
 473 -11 574 102 574 266 c 256
 574 427 472 538 307 538 c 256
 142 538 39 427 39 266 c 256
 39 102 140 -11 307 -11 c 256
307 102 m 256
 248 102 214 149 214 266 c 256
 214 380 248 426 307 426 c 256
 366 426 398 380 398 266 c 256
 398 150 364 102 307 102 c 256
EndSplineSet
Substitution2: "Single Substitution lookup 4 subtable" ordmasculine
EndChar

StartChar: oe
Encoding: 339 339 291
Width: 900
VWidth: 0
GlyphClass: 2
Flags: HW
PickledData: "(dp1
S'org.pippin.gimp.org.kernagic'
p2
(dp3
S'lstem'
p4
I0
sS'rstem'
p5
I0
ssS'com.typemytype.robofont.layerData'
p6
(dp7
S'b'
(dp8
S'name'
p9
S'oe'
p10
sS'lib'
p11
(dp12
sS'unicodes'
p13
(tsS'width'
p14
F1915.3599999999999
sS'contours'
p15
(tsS'components'
p16
(tsS'anchors'
p17
(tsssS'org.robofab.postScriptHintData'
p18
(dp19
s."
LayerCount: 2
Fore
SplineSet
530 300 m 257
 534 399 591 434 643 434 c 256
 694 434 725 402 731 300 c 257
 530 300 l 257
278 99 m 256
 203 99 166 151 166 266 c 256
 166 378 203 429 278 429 c 256
 353 429 390 378 390 266 c 256
 390 151 353 99 278 99 c 256
852 272 m 256
 852 427 780 536 635 536 c 256
 565 536 496 490 460 443 c 257
 425 490 353 536 278 536 c 256
 129 536 30 430 30 266 c 256
 30 100 128 -8 278 -8 c 256
 352 -8 419 33 459 79 c 257
 503 29 578 -8 661 -8 c 256
 747 -8 820 23 847 54 c 257
 810 142 l 257
 803 142 l 257
 787 121 726 99 671 99 c 256
 616 99 544 117 528 212 c 257
 848 212 l 257
 848 212 852 233 852 272 c 256
EndSplineSet
EndChar

StartChar: ogonek
Encoding: 731 731 292
Width: 374
VWidth: 0
GlyphClass: 4
Flags: HW
PickledData: "(dp1
S'org.pippin.gimp.org.kernagic'
p2
(dp3
S'lstem'
p4
I0
sS'rstem'
p5
I0
ssS'com.typemytype.robofont.layerData'
p6
(dp7
sS'org.robofab.postScriptHintData'
p8
(dp9
s."
LayerCount: 2
Fore
SplineSet
220 -219 m 256
 253 -219 284 -211 315 -199 c 257
 311 -120 l 257
 305 -124 275 -138 246 -138 c 256
 225 -138 211 -118 211 -101 c 256
 211 -72 227 -30 267 2 c 257
 208 2 l 257
 171 -19 117 -60 117 -127 c 256
 117 -190 166 -219 220 -219 c 256
EndSplineSet
EndChar

StartChar: one
Encoding: 49 49 296
Width: 672
VWidth: 0
GlyphClass: 2
Flags: HW
PickledData: "(dp1
S'org.pippin.gimp.org.kernagic'
p2
(dp3
S'lstem'
p4
I0
sS'rstem'
p5
I0
ssS'com.typemytype.robofont.layerData'
p6
(dp7
sS'org.robofab.postScriptHintData'
p8
(dp9
s."
LayerCount: 2
Fore
SplineSet
94 0 m 257
 625 0 l 257
 625 123 l 257
 465 123 l 257
 465 711 l 257
 303 711 l 257
 253 673 161 637 95 618 c 257
 95 501 l 257
 148 507 222 532 275 555 c 257
 275 123 l 257
 94 123 l 257
 94 0 l 257
EndSplineSet
EndChar

StartChar: onehalf
Encoding: 189 189 297
Width: 958
VWidth: 0
GlyphClass: 3
Flags: HW
PickledData: "(dp1
S'org.pippin.gimp.org.kernagic'
p2
(dp3
S'lstem'
p4
I0
sS'rstem'
p5
I0
ssS'com.typemytype.robofont.layerData'
p6
(dp7
sS'org.robofab.postScriptHintData'
p8
(dp9
s."
LayerCount: 2
Fore
SplineSet
196 0 m 257
 297 0 l 257
 779 737 l 257
 677 737 l 257
 196 0 l 257
77 293 m 257
 325 293 l 257
 325 363 l 257
 255 363 l 257
 255 737 l 257
 178 737 l 257
 165 730 98 693 72 680 c 257
 72 608 l 257
 73 607 135 637 153 646 c 257
 153 363 l 257
 77 363 l 257
 77 293 l 257
626 0 m 257
 901 0 l 257
 904 75 l 257
 732 75 l 257
 824 154 l 258
 885 207 907 255 907 296 c 256
 907 361 870 432 752 432 c 256
 676 432 619 391 588 351 c 257
 640 295 l 257
 666 327 709 350 749 350 c 256
 780 350 806 331 806 299 c 256
 806 275 791 247 763 220 c 258
 610 72 l 257
 626 0 l 257
EndSplineSet
Ligature2: "fracDiagonalFractionslookup11 subtable" one slash two
EndChar

StartChar: onequarter
Encoding: 188 188 298
Width: 783
VWidth: 0
GlyphClass: 3
Flags: HW
PickledData: "(dp1
S'org.pippin.gimp.org.kernagic'
p2
(dp3
S'lstem'
p4
I0
sS'rstem'
p5
I0
ssS'com.typemytype.robofont.layerData'
p6
(dp7
sS'org.robofab.postScriptHintData'
p8
(dp9
s."
LayerCount: 2
Fore
SplineSet
577 159 m 257
 661 313 l 257
 661 159 l 257
 577 159 l 257
144 0 m 257
 255 0 l 257
 741 736 l 257
 634 736 l 257
 144 0 l 257
660 0 m 257
 746 0 l 257
 746 86 l 257
 792 86 l 257
 800 159 l 257
 745 159 l 257
 745 428 l 257
 655 428 l 257
 482 162 l 257
 482 86 l 257
 660 86 l 257
 660 0 l 257
56 293 m 257
 291 293 l 257
 291 378 l 257
 225 378 l 257
 225 736 l 257
 148 736 l 257
 135 730 73 692 47 680 c 257
 47 595 l 258
 47 594 114 623 132 631 c 257
 132 378 l 257
 56 378 l 257
 56 293 l 257
EndSplineSet
Ligature2: "fracDiagonalFractionslookup11 subtable" one slash four
EndChar

StartChar: ordmasculine
Encoding: 186 186 300
Width: 471
VWidth: 0
GlyphClass: 2
Flags: HW
PickledData: "(dp1
S'org.pippin.gimp.org.kernagic'
p2
(dp3
S'lstem'
p4
I0
sS'rstem'
p5
I0
ssS'com.typemytype.robofont.layerData'
p6
(dp7
S'b'
(dp8
S'name'
p9
S'ordmasculine'
p10
sS'lib'
p11
(dp12
sS'unicodes'
p13
(tsS'width'
p14
I965
sS'contours'
p15
(tsS'components'
p16
(tsS'anchors'
p17
(tsssS'org.robofab.postScriptHintData'
p18
(dp19
s."
LayerCount: 2
Fore
SplineSet
316 552 m 256
 316 474 289 440 234 440 c 256
 183 440 156 475 156 554 c 256
 156 634 183 669 234 669 c 256
 287 669 316 632 316 552 c 256
52 554 m 256
 52 441 115 350 234 350 c 256
 347 350 417 441 417 554 c 256
 417 670 356 759 234 759 c 256
 115 759 52 668 52 554 c 256
EndSplineSet
EndChar

StartChar: oslash
Encoding: 248 248 301
Width: 612
VWidth: 0
GlyphClass: 2
Flags: HW
PickledData: "(dp1
S'org.pippin.gimp.org.kernagic'
p2
(dp3
S'lstem'
p4
I0
sS'rstem'
p5
I0
ssS'com.typemytype.robofont.layerData'
p6
(dp7
sS'org.robofab.postScriptHintData'
p8
(dp9
s."
LayerCount: 2
Fore
SplineSet
114 -62 m 257
 151 -87 l 257
 514 590 l 257
 473 616 l 257
 114 -62 l 257
EndSplineSet
Refer: 286 111 N 1 0 0 1 0 0 2
EndChar

StartChar: p
Encoding: 112 112 304
Width: 621
VWidth: 0
GlyphClass: 2
Flags: HW
PickledData: "(dp1
S'org.pippin.gimp.org.kernagic'
p2
(dp3
S'lstem'
p4
I0
sS'rstem'
p5
I0
ssS'com.fontlab.hintData'
p6
(dp7
S'vhints'
p8
((dp9
S'position'
p10
I193
sS'width'
p11
I122
s(dp12
g10
I193
sg11
I97
s(dp13
g10
I1009
sg11
I122
stp14
sS'hhints'
p15
((dp16
g10
I-19
sg11
I92
s(dp17
g10
I982
sg11
I92
stp18
ssS'com.typemytype.robofont.layerData'
p19
(dp20
sS'org.robofab.postScriptHintData'
p21
(dp22
s."
HStem: -9 45 479 45
VStem: 94 60 94 47 493 60
AnchorPoint: "top" 323 528 basechar 0
LayerCount: 2
Fore
SplineSet
319 102 m 256
 277 102 254 121 237 142 c 257
 237 366 l 257
 252 403 284 426 327 426 c 256
 370 426 405 393 405 268 c 256
 405 128 361 102 319 102 c 256
64 -232 m 257
 237 -232 l 257
 237 -27 l 257
 235 50 l 257
 259 18 302 -10 366 -10 c 256
 511 -10 581 105 581 268 c 256
 581 421 512 538 371 538 c 256
 292 538 247 496 224 443 c 257
 220 528 l 257
 64 528 l 257
 64 -232 l 257
EndSplineSet
EndChar

StartChar: paragraph
Encoding: 182 182 305
Width: 608
VWidth: 0
GlyphClass: 2
Flags: HW
PickledData: "(dp1
S'org.pippin.gimp.org.kernagic'
p2
(dp3
S'lstem'
p4
I0
sS'rstem'
p5
I0
ssS'com.typemytype.robofont.layerData'
p6
(dp7
sS'org.robofab.postScriptHintData'
p8
(dp9
s."
LayerCount: 2
Fore
SplineSet
341 637 m 257
 436 637 l 257
 436 -125 l 257
 523 -125 l 257
 523 711 l 257
 323 711 l 258
 120 711 48 649 48 515 c 256
 48 419 114 333 254 333 c 257
 254 -125 l 257
 341 -125 l 257
 341 637 l 257
EndSplineSet
EndChar

StartChar: parenright
Encoding: 41 41 307
Width: 427
VWidth: 0
GlyphClass: 2
Flags: HW
PickledData: "(dp1
S'org.pippin.gimp.org.kernagic'
p2
(dp3
S'lstem'
p4
I0
sS'rstem'
p5
I0
ssS'com.typemytype.robofont.layerData'
p6
(dp7
S'b'
(dp8
S'name'
p9
S'parenright'
p10
sS'lib'
p11
(dp12
sS'unicodes'
p13
(tsS'width'
p14
I766
sS'contours'
p15
(tsS'components'
p16
(tsS'anchors'
p17
(tsssS'org.robofab.postScriptHintData'
p18
(dp19
s."
LayerCount: 2
Fore
SplineSet
327 317 m 256
 327 494 262 692 189 779 c 257
 68 779 l 257
 68 760 l 257
 133 690 203 561 203 317 c 256
 203 74 133 -61 68 -131 c 257
 68 -145 l 257
 189 -145 l 257
 262 -58 327 140 327 317 c 256
EndSplineSet
EndChar

StartChar: partialdiff
Encoding: 8706 8706 308
Width: 675
VWidth: 0
GlyphClass: 2
Flags: HW
PickledData: "(dp1
S'org.robofab.postScriptHintData'
p2
(dp3
s."
LayerCount: 2
Fore
SplineSet
279 66 m 256
 255 66 244 92 244 130 c 256
 244 221 311 378 441 402 c 257
 429 264 374 66 279 66 c 256
272 -10 m 256
 461 -10 579 194 579 455 c 256
 579 641 455 762 304 762 c 256
 249 762 191 746 133 711 c 257
 162 637 l 257
 203 661 244 673 281 673 c 256
 374 673 445 601 445 482 c 258
 445 473 l 257
 222 459 98 289 98 154 c 256
 98 64 153 -10 272 -10 c 256
EndSplineSet
EndChar

StartChar: percent
Encoding: 37 37 309
Width: 1087
VWidth: 0
GlyphClass: 2
Flags: HW
PickledData: "(dp1
S'org.pippin.gimp.org.kernagic'
p2
(dp3
S'lstem'
p4
I0
sS'rstem'
p5
I0
ssS'com.typemytype.robofont.layerData'
p6
(dp7
S'b'
(dp8
S'name'
p9
S'percent'
p10
sS'lib'
p11
(dp12
sS'unicodes'
p13
(tsS'width'
p14
I1563
sS'contours'
p15
(tsS'components'
p16
(tsS'anchors'
p17
(tsssS'org.robofab.postScriptHintData'
p18
(dp19
s."
LayerCount: 2
Fore
SplineSet
846 -19 m 256
 967 -19 1052 71 1052 185 c 256
 1052 300 969 385 846 385 c 256
 725 385 640 298 640 185 c 256
 640 71 723 -19 846 -19 c 256
848 77 m 256
 792 77 751 125 751 187 c 256
 751 248 792 294 848 294 c 256
 903 294 941 250 941 187 c 256
 941 126 904 77 848 77 c 256
282 0 m 257
 403 0 l 257
 817 746 l 257
 700 746 l 257
 282 0 l 257
256 352 m 256
 377 352 462 440 462 554 c 256
 462 669 379 755 256 755 c 256
 135 755 56 667 56 554 c 256
 56 440 133 352 256 352 c 256
258 446 m 256
 202 446 162 494 162 556 c 256
 162 617 202 664 258 664 c 256
 313 664 352 619 352 556 c 256
 352 494 314 446 258 446 c 256
EndSplineSet
EndChar

StartChar: period
Encoding: 46 46 310
Width: 358
VWidth: 0
GlyphClass: 2
Flags: HW
PickledData: "(dp1
S'org.pippin.gimp.org.kernagic'
p2
(dp3
S'lstem'
p4
I0
sS'rstem'
p5
I0
ssS'com.typemytype.robofont.layerData'
p6
(dp7
S'b'
(dp8
S'name'
p9
S'period'
p10
sS'lib'
p11
(dp12
sS'unicodes'
p13
(tsS'width'
p14
I624
sS'contours'
p15
(tsS'components'
p16
(tsS'anchors'
p17
(tsssS'org.robofab.postScriptHintData'
p18
(dp19
s."
LayerCount: 2
Fore
SplineSet
176 -3 m 256
 222 -3 259 23 259 76 c 256
 259 131 222 157 176 157 c 256
 131 157 92 131 92 76 c 256
 92 22 132 -3 176 -3 c 256
EndSplineSet
EndChar

StartChar: periodcentered
Encoding: 183 183 311
Width: 291
VWidth: 0
GlyphClass: 2
Flags: HW
PickledData: "(dp1
S'org.pippin.gimp.org.kernagic'
p2
(dp3
S'lstem'
p4
I0
sS'rstem'
p5
I0
ssS'com.typemytype.robofont.layerData'
p6
(dp7
S'b'
(dp8
S'name'
p9
S'periodcentered'
p10
sS'lib'
p11
(dp12
sS'unicodes'
p13
(tsS'width'
p14
I653
sS'contours'
p15
(tsS'components'
p16
(tsS'anchors'
p17
(tsssS'org.robofab.postScriptHintData'
p18
(dp19
s."
LayerCount: 2
Fore
SplineSet
240 218 m 256
 291 218 323 253 323 307 c 256
 323 359 291 392 240 392 c 256
 189 392 156 359 156 307 c 256
 156 253 189 218 240 218 c 256
EndSplineSet
EndChar

StartChar: perthousand
Encoding: 8240 8240 312
Width: 1572
VWidth: 0
GlyphClass: 2
Flags: HW
PickledData: "(dp1
S'org.pippin.gimp.org.kernagic'
p2
(dp3
S'lstem'
p4
I0
sS'rstem'
p5
I0
ssS'com.typemytype.robofont.layerData'
p6
(dp7
S'b'
(dp8
S'name'
p9
S'perthousand'
p10
sS'lib'
p11
(dp12
sS'unicodes'
p13
(tsS'width'
p14
I2251
sS'contours'
p15
(tsS'components'
p16
(tsS'anchors'
p17
(tsssS'org.robofab.postScriptHintData'
p18
(dp19
s."
LayerCount: 2
Fore
SplineSet
1331 -19 m 256
 1453 -19 1538 71 1538 185 c 256
 1538 300 1454 385 1331 385 c 256
 1210 385 1125 298 1125 185 c 256
 1125 71 1208 -19 1331 -19 c 256
1333 77 m 256
 1277 77 1237 125 1237 187 c 256
 1237 248 1277 294 1333 294 c 256
 1388 294 1427 250 1427 187 c 256
 1427 126 1389 77 1333 77 c 256
EndSplineSet
Refer: 309 37 N 1 0 0 1 24 0 2
EndChar

StartChar: pi
Encoding: 960 960 313
Width: 727
VWidth: 0
GlyphClass: 2
Flags: HW
PickledData: "(dp1
S'org.robofab.postScriptHintData'
p2
(dp3
sS'com.typemytype.robofont.layerData'
p4
(dp5
s."
LayerCount: 2
Fore
SplineSet
561 -6 m 256
 599 -6 630 5 646 21 c 257
 646 83 l 257
 637 80 630 80 620 80 c 256
 561 80 545 128 545 197 c 256
 545 258 557 337 560 411 c 257
 675 411 l 257
 675 528 l 257
 245 528 l 258
 131 528 95 453 95 348 c 257
 141 348 l 257
 147 385 166 411 205 411 c 258
 237 411 l 257
 206 187 l 258
 192 83 125 54 101 54 c 257
 101 2 l 257
 268 2 301 51 306 156 c 258
 319 411 l 257
 475 411 l 257
 457 333 437 239 437 160 c 256
 437 66 465 -6 561 -6 c 256
EndSplineSet
EndChar

StartChar: plus
Encoding: 43 43 314
Width: 581
VWidth: 0
GlyphClass: 2
Flags: HW
PickledData: "(dp1
S'org.pippin.gimp.org.kernagic'
p2
(dp3
S'lstem'
p4
I0
sS'rstem'
p5
I0
ssS'com.typemytype.robofont.layerData'
p6
(dp7
S'b'
(dp8
S'name'
p9
S'plus'
p10
sS'lib'
p11
(dp12
sS'unicodes'
p13
(tsS'width'
p14
I1136
sS'contours'
p15
(tsS'components'
p16
(tsS'anchors'
p17
(tsssS'org.robofab.postScriptHintData'
p18
(dp19
s."
LayerCount: 2
Fore
SplineSet
229 602 m 257
 229 420 l 257
 50 420 l 257
 50 301 l 257
 229 301 l 257
 229 116 l 257
 351 116 l 257
 351 301 l 257
 530 301 l 257
 530 420 l 257
 351 420 l 257
 351 602 l 257
 229 602 l 257
EndSplineSet
EndChar

StartChar: plusminus
Encoding: 177 177 315
Width: 554
VWidth: 0
GlyphClass: 2
Flags: HW
PickledData: "(dp1
S'org.pippin.gimp.org.kernagic'
p2
(dp3
S'lstem'
p4
I0
sS'rstem'
p5
I0
ssS'com.typemytype.robofont.layerData'
p6
(dp7
sS'org.robofab.postScriptHintData'
p8
(dp9
s."
LayerCount: 2
Fore
SplineSet
51 99 m 257
 51 0 l 257
 509 0 l 257
 509 99 l 257
 51 99 l 257
224 600 m 257
 224 434 l 257
 50 434 l 257
 50 321 l 257
 224 321 l 257
 224 160 l 257
 338 160 l 257
 338 321 l 257
 512 321 l 257
 512 434 l 257
 339 434 l 257
 339 600 l 257
 224 600 l 257
EndSplineSet
EndChar

StartChar: product
Encoding: 8719 8719 316
Width: 775
VWidth: 0
GlyphClass: 2
Flags: HW
PickledData: "(dp1
S'org.pippin.gimp.org.kernagic'
p2
(dp3
S'lstem'
p4
I0
sS'rstem'
p5
I0
ssS'com.typemytype.robofont.layerData'
p6
(dp7
S'b'
(dp8
S'name'
p9
S'product'
p10
sS'lib'
p11
(dp12
sS'unicodes'
p13
(tsS'width'
p14
I1533
sS'contours'
p15
(tsS'components'
p16
(tsS'anchors'
p17
(tsssS'org.robofab.postScriptHintData'
p18
(dp19
s."
LayerCount: 2
Fore
SplineSet
101 751 m 257
 101 0 l 257
 189 0 l 257
 189 671 l 257
 591 671 l 257
 591 0 l 257
 679 0 l 257
 679 751 l 257
 101 751 l 257
EndSplineSet
EndChar

StartChar: q
Encoding: 113 113 317
Width: 615
VWidth: 0
GlyphClass: 2
Flags: HW
PickledData: "(dp1
S'org.pippin.gimp.org.kernagic'
p2
(dp3
S'lstem'
p4
I0
sS'rstem'
p5
I0
ssS'com.typemytype.robofont.layerData'
p6
(dp7
sS'org.robofab.postScriptHintData'
p8
(dp9
s."
LayerCount: 2
Fore
SplineSet
302 102 m 256
 259 102 215 128 215 269 c 256
 215 394 253 426 296 426 c 256
 335 426 366 407 383 377 c 257
 383 141 l 257
 367 120 344 102 302 102 c 256
384 -232 m 257
 557 -232 l 257
 557 528 l 257
 401 528 l 257
 397 448 l 257
 374 498 328 538 251 538 c 256
 110 538 41 422 41 269 c 256
 41 106 110 -10 256 -10 c 256
 319 -10 361 19 386 51 c 257
 384 -25 l 257
 384 -232 l 257
EndSplineSet
EndChar

StartChar: question
Encoding: 63 63 318
Width: 524
VWidth: 0
GlyphClass: 2
Flags: HW
PickledData: "(dp1
S'org.pippin.gimp.org.kernagic'
p2
(dp3
S'lstem'
p4
I0
sS'rstem'
p5
I0
ssS'com.typemytype.robofont.layerData'
p6
(dp7
sS'org.robofab.postScriptHintData'
p8
(dp9
s."
LayerCount: 2
Fore
SplineSet
179 -9 m 256
 226 -9 255 22 255 69 c 256
 255 117 226 147 179 147 c 256
 130 147 100 117 100 69 c 256
 100 22 130 -9 179 -9 c 256
158 247 m 257
 195 233 l 257
 292 382 454 400 454 588 c 256
 454 695 357 758 248 758 c 256
 190 758 106 739 56 689 c 257
 97 569 l 257
 136 590 182 605 219 605 c 256
 274 605 293 574 293 535 c 256
 293 466 219 424 158 247 c 257
EndSplineSet
EndChar

StartChar: quotedbl
Encoding: 34 34 320
Width: 423
VWidth: 0
GlyphClass: 2
Flags: HW
PickledData: "(dp1
S'org.robofab.postScriptHintData'
p2
(dp3
sS'com.typemytype.robofont.layerData'
p4
(dp5
s."
LayerCount: 2
Fore
SplineSet
286 444 m 257
 363 444 l 257
 386 760 l 257
 239 760 l 257
 286 444 l 257
90 444 m 257
 167 444 l 257
 190 760 l 257
 43 760 l 257
 90 444 l 257
EndSplineSet
EndChar

StartChar: quotedblbase
Encoding: 8222 8222 321
Width: 470
VWidth: 0
GlyphClass: 2
Flags: HW
PickledData: "(dp1
S'org.robofab.postScriptHintData'
p2
(dp3
s."
LayerCount: 2
Fore
SplineSet
253 -186 m 257
 356 -186 l 257
 416 69 l 257
 271 69 l 257
 253 -186 l 257
51 -186 m 257
 154 -186 l 257
 214 69 l 257
 69 69 l 257
 51 -186 l 257
EndSplineSet
EndChar

StartChar: quotedblleft
Encoding: 8220 8220 322
Width: 476
VWidth: 0
GlyphClass: 2
Flags: HW
PickledData: "(dp1
S'org.robofab.postScriptHintData'
p2
(dp3
sS'com.typemytype.robofont.layerData'
p4
(dp5
s."
LayerCount: 2
Fore
SplineSet
264 504 m 257
 410 504 l 257
 428 759 l 257
 324 759 l 257
 264 504 l 257
56 504 m 257
 202 504 l 257
 220 759 l 257
 116 759 l 257
 56 504 l 257
EndSplineSet
EndChar

StartChar: quotedblright
Encoding: 8221 8221 323
Width: 476
VWidth: 0
GlyphClass: 2
Flags: HW
PickledData: "(dp1
S'org.robofab.postScriptHintData'
p2
(dp3
sS'com.typemytype.robofont.layerData'
p4
(dp5
s."
LayerCount: 2
Fore
SplineSet
56 504 m 257
 159 504 l 257
 220 759 l 257
 73 759 l 257
 56 504 l 257
264 504 m 257
 367 504 l 257
 428 759 l 257
 281 759 l 257
 264 504 l 257
EndSplineSet
EndChar

StartChar: quoteleft
Encoding: 8216 8216 324
Width: 258
VWidth: 0
GlyphClass: 2
Flags: HW
PickledData: "(dp1
S'org.robofab.postScriptHintData'
p2
(dp3
sS'com.typemytype.robofont.layerData'
p4
(dp5
s."
LayerCount: 2
Fore
SplineSet
220 759 m 257
 116 759 l 257
 56 504 l 257
 202 504 l 257
 220 759 l 257
EndSplineSet
EndChar

StartChar: quoteright
Encoding: 8217 8217 325
Width: 258
VWidth: 0
GlyphClass: 2
Flags: HW
PickledData: "(dp1
S'org.robofab.postScriptHintData'
p2
(dp3
sS'com.typemytype.robofont.layerData'
p4
(dp5
s."
LayerCount: 2
Fore
SplineSet
56 504 m 257
 159 504 l 257
 220 759 l 257
 73 759 l 257
 56 504 l 257
EndSplineSet
EndChar

StartChar: quotesinglbase
Encoding: 8218 8218 326
Width: 255
VWidth: 0
GlyphClass: 2
Flags: HW
PickledData: "(dp1
S'org.robofab.postScriptHintData'
p2
(dp3
s."
LayerCount: 2
Fore
SplineSet
51 -186 m 257
 154 -186 l 257
 214 69 l 257
 68 69 l 257
 51 -186 l 257
EndSplineSet
EndChar

StartChar: quotesingle
Encoding: 39 39 327
Width: 309
VWidth: 0
GlyphClass: 2
Flags: HW
PickledData: "(dp1
S'org.robofab.postScriptHintData'
p2
(dp3
s."
LayerCount: 2
Fore
SplineSet
116 442 m 257
 193 442 l 257
 216 759 l 257
 69 759 l 257
 116 442 l 257
EndSplineSet
EndChar

StartChar: r
Encoding: 114 114 328
Width: 428
VWidth: 0
GlyphClass: 2
Flags: HW
PickledData: "(dp1
S'org.pippin.gimp.org.kernagic'
p2
(dp3
S'lstem'
p4
I0
sS'rstem'
p5
I352
ssS'com.fontlab.hintData'
p6
(dp7
S'vhints'
p8
((dp9
S'position'
p10
I193
sS'width'
p11
I122
s(dp12
g10
I193
sg11
I92
stp13
sS'hhints'
p14
((dp15
g10
I974
sg11
I94
stp16
ssS'com.typemytype.robofont.layerData'
p17
(dp18
sS'org.robofab.postScriptHintData'
p19
(dp20
s."
HStem: 476 46
VStem: 94 60 94 45
AnchorPoint: "top" 207 528 basechar 0
LayerCount: 2
Fore
SplineSet
59 0 m 257
 235 0 l 257
 235 297 l 258
 235 364 295 402 361 402 c 256
 366 402 373 401 378 401 c 258
 406 398 l 257
 417 525 l 257
 390 530 365 531 351 531 c 256
 306 531 251 507 221 444 c 257
 212 528 l 257
 59 528 l 257
 59 0 l 257
EndSplineSet
EndChar

StartChar: radical
Encoding: 8730 8730 330
Width: 673
VWidth: 0
GlyphClass: 2
Flags: HW
PickledData: "(dp1
S'org.pippin.gimp.org.kernagic'
p2
(dp3
S'lstem'
p4
I0
sS'rstem'
p5
I0
ssS'com.typemytype.robofont.layerData'
p6
(dp7
S'b'
(dp8
S'name'
p9
S'radical'
p10
sS'lib'
p11
(dp12
sS'unicodes'
p13
(tsS'width'
p14
I1136
sS'contours'
p15
(tsS'components'
p16
(tsS'anchors'
p17
(tsssS'org.robofab.postScriptHintData'
p18
(dp19
s."
LayerCount: 2
Fore
SplineSet
513 768 m 257
 508 746 312 110 307 88 c 257
 265 217 220 344 177 471 c 257
 7 420 l 257
 22 359 l 257
 91 379 l 257
 261 -82 l 257
 405 -82 l 257
 658 768 l 257
 513 768 l 257
EndSplineSet
EndChar

StartChar: registered
Encoding: 174 174 333
Width: 928
VWidth: 0
GlyphClass: 2
Flags: HW
PickledData: "(dp1
S'org.pippin.gimp.org.kernagic'
p2
(dp3
S'lstem'
p4
I0
sS'rstem'
p5
I0
ssS'com.typemytype.robofont.layerData'
p6
(dp7
sS'org.robofab.postScriptHintData'
p8
(dp9
s."
LayerCount: 2
Fore
SplineSet
440 -27 m 256
 651 -27 823 140 823 356 c 256
 823 571 651 738 440 738 c 256
 229 738 58 571 58 356 c 256
 58 140 229 -27 440 -27 c 256
440 50 m 256
 275 50 142 184 142 356 c 256
 142 527 275 661 440 661 c 256
 605 661 739 527 739 356 c 256
 739 184 605 50 440 50 c 256
378 402 m 257
 378 515 l 257
 415 515 l 257
 439 515 l 258
 497 515 520 512 520 458 c 256
 520 411 487 402 419 402 c 258
 378 402 l 257
294 157 m 257
 378 157 l 257
 378 345 l 257
 416 345 l 257
 528 157 l 257
 626 157 l 257
 626 157 505 350 505 351 c 257
 579 371 604 402 604 461 c 256
 604 562 532 580 431 580 c 258
 294 580 l 257
 294 157 l 257
EndSplineSet
EndChar

StartChar: ring
Encoding: 730 730 334
Width: 398
VWidth: 0
GlyphClass: 4
Flags: HW
PickledData: "(dp1
S'org.robofab.postScriptHintData'
p2
(dp3
sS'com.typemytype.robofont.layerData'
p4
(dp5
s."
AnchorPoint: "top" 187 528 mark 0
LayerCount: 2
Fore
SplineSet
188 582 m 256
 258 582 300 633 300 690 c 256
 300 746 259 798 188 798 c 256
 118 798 77 747 77 690 c 256
 77 633 119 582 188 582 c 256
188 638 m 256
 157 638 144 662 144 690 c 256
 144 715 159 742 188 742 c 256
 218 742 234 715 234 690 c 256
 234 663 218 638 188 638 c 256
EndSplineSet
EndChar

StartChar: s
Encoding: 115 115 335
Width: 493
VWidth: 0
GlyphClass: 2
Flags: HW
PickledData: "(dp1
S'org.pippin.gimp.org.kernagic'
p2
(dp3
S'lstem'
p4
I168
sS'rstem'
p5
I620
ssS'org.robofab.postScriptHintData'
p6
(dp7
sS'com.typemytype.robofont.guides'
p8
((dp9
S'y'
I381
sS'x'
I77
sS'magnetic'
p10
I5
sS'angle'
p11
F90
sS'isGlobal'
p12
I00
stp13
sS'com.typemytype.robofont.layerData'
p14
(dp15
sS'com.fontlab.hintData'
p16
(dp17
S'vhints'
p18
((dp19
S'position'
p20
I142
sS'width'
p21
I107
s(dp22
g20
I738
sg21
I104
stp23
sS'hhints'
p24
((dp25
g20
I-19
sg21
I92
s(dp26
g20
I982
sg21
I92
stp27
ss."
HStem: -9 45 479 45
VStem: 69 52 360 51
AnchorPoint: "top" 236 528 basechar 0
LayerCount: 2
Fore
SplineSet
252 538 m 256
 126 538 46 478 46 381 c 256
 46 302 90 258 189 220 c 257
 243 201 l 258
 296 181 307 166 307 148 c 256
 307 125 294 104 257 104 c 256
 219 104 166 113 122 169 c 257
 107 169 l 257
 27 94 l 257
 83 22 159 -10 266 -10 c 256
 375 -10 474 47 474 153 c 256
 474 218 458 262 349 309 c 258
 276 341 l 258
 237 358 230 371 230 386 c 256
 230 409 251 422 280 422 c 256
 311 422 354 409 383 373 c 257
 390 373 l 257
 465 442 l 257
 423 513 341 538 252 538 c 256
EndSplineSet
EndChar

StartChar: section
Encoding: 167 167 341
Width: 499
VWidth: 0
GlyphClass: 2
Flags: HW
PickledData: "(dp1
S'org.pippin.gimp.org.kernagic'
p2
(dp3
S'lstem'
p4
I0
sS'rstem'
p5
I0
ssS'com.typemytype.robofont.layerData'
p6
(dp7
S'b'
(dp8
S'name'
p9
S'section'
p10
sS'lib'
p11
(dp12
sS'unicodes'
p13
(tsS'width'
p14
I1079
sS'contours'
p15
(tsS'components'
p16
(tsS'anchors'
p17
(tsssS'org.robofab.postScriptHintData'
p18
(dp19
s."
LayerCount: 2
Fore
SplineSet
318 315 m 256
 317 315 287 330 281 332 c 256
 206 367 186 376 186 399 c 256
 186 418 198 434 208 438 c 256
 208 438 252 420 281 406 c 256
 322 386 335 367 335 348 c 256
 335 335 328 324 318 315 c 256
242 -10 m 256
 354 -10 434 39 434 172 c 256
 434 213 417 250 380 280 c 257
 412 307 439 341 439 395 c 256
 439 450 413 489 330 525 c 256
 220 572 213 586 213 609 c 256
 213 635 238 646 276 646 c 256
 316 646 364 634 396 616 c 257
 426 705 l 257
 375 739 312 756 265 756 c 256
 182 756 73 726 73 599 c 256
 73 544 99 505 151 470 c 257
 112 440 80 403 80 359 c 256
 80 295 125 266 208 229 c 256
 287 195 303 176 303 153 c 256
 303 119 280 101 240 101 c 256
 185 101 113 128 83 147 c 257
 83 32 l 257
 129 8 192 -10 242 -10 c 256
EndSplineSet
EndChar

StartChar: semicolon
Encoding: 59 59 342
Width: 373
VWidth: 0
GlyphClass: 2
Flags: HW
PickledData: "(dp1
S'org.pippin.gimp.org.kernagic'
p2
(dp3
S'lstem'
p4
I0
sS'rstem'
p5
I0
ssS'com.typemytype.robofont.layerData'
p6
(dp7
sS'org.robofab.postScriptHintData'
p8
(dp9
s."
LayerCount: 2
Fore
SplineSet
188 384 m 256
 235 384 272 410 272 463 c 256
 272 518 235 545 188 545 c 256
 142 545 104 518 104 463 c 256
 104 409 143 384 188 384 c 256
99 -171 m 257
 202 -171 l 257
 262 51 l 257
 262 137 l 257
 117 137 l 257
 117 106 99 -171 99 -171 c 257
EndSplineSet
EndChar

StartChar: seven
Encoding: 55 55 343
Width: 672
VWidth: 0
GlyphClass: 2
Flags: HW
PickledData: "(dp1
S'org.pippin.gimp.org.kernagic'
p2
(dp3
S'lstem'
p4
I0
sS'rstem'
p5
I0
ssS'com.typemytype.robofont.layerData'
p6
(dp7
sS'org.robofab.postScriptHintData'
p8
(dp9
s."
LayerCount: 2
Fore
SplineSet
156 0 m 257
 349 0 l 257
 589 581 l 257
 586 711 l 257
 90 711 l 257
 95 584 l 257
 397 584 l 257
 156 0 l 257
EndSplineSet
EndChar

StartChar: six
Encoding: 54 54 344
Width: 672
VWidth: 0
GlyphClass: 2
Flags: HW
PickledData: "(dp1
S'org.pippin.gimp.org.kernagic'
p2
(dp3
S'lstem'
p4
I0
sS'rstem'
p5
I0
ssS'com.typemytype.robofont.layerData'
p6
(dp7
sS'org.robofab.postScriptHintData'
p8
(dp9
s."
LayerCount: 2
Fore
SplineSet
335 112 m 256
 277 112 241 156 241 224 c 256
 241 298 280 341 335 341 c 256
 393 341 429 296 429 224 c 256
 429 156 393 112 335 112 c 256
335 -10 m 256
 505 -10 607 84 607 219 c 256
 607 374 494 438 392 438 c 256
 362 438 333 430 311 420 c 257
 386 508 453 604 524 696 c 257
 524 711 l 257
 329 711 l 257
 139 436 l 258
 94 371 63 313 63 228 c 256
 63 89 163 -10 335 -10 c 256
EndSplineSet
EndChar

StartChar: slash
Encoding: 47 47 345
Width: 498
VWidth: 0
GlyphClass: 2
Flags: HW
PickledData: "(dp1
S'org.pippin.gimp.org.kernagic'
p2
(dp3
S'lstem'
p4
I0
sS'rstem'
p5
I0
ssS'com.typemytype.robofont.layerData'
p6
(dp7
S'b'
(dp8
S'name'
p9
S'slash'
p10
sS'lib'
p11
(dp12
sS'unicodes'
p13
(tsS'width'
p14
I965
sS'contours'
p15
(tsS'components'
p16
(tsS'anchors'
p17
(tsssS'org.robofab.postScriptHintData'
p18
(dp19
s."
LayerCount: 2
Fore
SplineSet
28 -89 m 257
 134 -89 l 257
 453 762 l 257
 345 762 l 257
 28 -89 l 257
EndSplineSet
EndChar

StartChar: slashbar
Encoding: 65542 -1 346
Width: 153
VWidth: 0
GlyphClass: 4
Flags: HW
PickledData: "(dp1
S'org.pippin.gimp.org.kernagic'
p2
(dp3
S'lstem'
p4
I0
sS'rstem'
p5
I0
ssS'com.typemytype.robofont.layerData'
p6
(dp7
S'b'
(dp8
S'name'
p9
S'slashbar'
p10
sS'lib'
p11
(dp12
sS'unicodes'
p13
(tsS'width'
p14
I908
sS'contours'
p15
(tsS'components'
p16
(tsS'anchors'
p17
(tsssS'org.robofab.postScriptHintData'
p18
(dp19
s."
LayerCount: 2
Fore
SplineSet
68 218 m 257
 399 329 l 257
 399 448 l 257
 68 336 l 257
 68 218 l 257
EndSplineSet
EndChar

StartChar: sterling
Encoding: 163 163 348
Width: 595
VWidth: 0
GlyphClass: 2
Flags: HW
PickledData: "(dp1
S'org.pippin.gimp.org.kernagic'
p2
(dp3
S'lstem'
p4
I0
sS'rstem'
p5
I0
ssS'com.typemytype.robofont.layerData'
p6
(dp7
S'b'
(dp8
S'name'
p9
S'sterling'
p10
sS'lib'
p11
(dp12
sS'unicodes'
p13
(tsS'width'
p14
I1136
sS'contours'
p15
((dp16
S'points'
p17
((dp18
S'segmentType'
p19
S'line'
p20
sS'x'
I20
sS'smooth'
p21
I00
sS'y'
I0
s(dp22
g19
S'line'
p23
sS'x'
I8
sg21
I00
sS'y'
I115
s(dp24
g19
S'line'
p25
sS'x'
I180
sg21
I00
sS'y'
I132
s(dp26
g19
S'line'
p27
sS'x'
I180
sg21
I00
sS'y'
I683
s(dp28
g19
S'line'
p29
sS'x'
I8
sg21
I00
sS'y'
I683
s(dp30
g19
S'line'
p31
sS'x'
I8
sg21
I00
sS'y'
I806
s(dp32
g19
S'line'
p33
sS'x'
I180
sg21
I00
sS'y'
I806
s(dp34
g19
S'line'
p35
sS'x'
I180
sg21
I01
sS'y'
I920
s(dp36
S'y'
I1183
sS'x'
I180
sg21
I00
s(dp37
S'y'
I1476
sS'x'
I245
sg21
I00
s(dp38
g19
S'curve'
p39
sS'x'
I598
sg21
I01
sS'y'
I1476
s(dp40
S'y'
I1476
sS'x'
I742
sg21
I00
s(dp41
S'y'
I1421
sS'x'
I854
sg21
I00
s(dp42
g19
S'curve'
p43
sS'x'
I939
sg21
I00
sS'y'
I1347
s(dp44
g19
S'line'
p45
sS'x'
I871
sg21
I00
sS'y'
I1229
s(dp46
S'y'
I1297
sS'x'
I785
sg21
I00
s(dp47
S'y'
I1334
sS'x'
I700
sg21
I00
s(dp48
g19
S'curve'
p49
sS'x'
I598
sg21
I01
sS'y'
I1334
s(dp50
S'y'
I1334
sS'x'
I397
sg21
I00
s(dp51
S'y'
I1179
sS'x'
I356
sg21
I00
s(dp52
g19
S'curve'
p53
sS'x'
I356
sg21
I01
sS'y'
I949
s(dp54
g19
S'line'
p55
sS'x'
I356
sg21
I00
sS'y'
I806
s(dp56
g19
S'line'
p57
sS'x'
I739
sg21
I00
sS'y'
I806
s(dp58
g19
S'line'
p59
sS'x'
I739
sg21
I00
sS'y'
I683
s(dp60
g19
S'line'
p61
sS'x'
I356
sg21
I00
sS'y'
I683
s(dp62
g19
S'line'
p63
sS'x'
I356
sg21
I00
sS'y'
I134
s(dp64
g19
S'line'
p65
sS'x'
I953
sg21
I00
sS'y'
I134
s(dp66
g19
S'line'
p67
sS'x'
I940
sg21
I00
sS'y'
I0
stp68
stp69
sS'components'
p70
(tsS'anchors'
p71
(tsssS'org.robofab.postScriptHintData'
p72
(dp73
s."
LayerCount: 2
Fore
SplineSet
507 592 m 257
 563 696 l 257
 546 709 473 758 363 758 c 256
 194 758 133 651 133 479 c 258
 133 425 l 257
 42 425 l 257
 42 325 l 257
 133 325 l 257
 133 122 l 257
 46 111 l 257
 51 0 l 257
 552 0 l 257
 554 123 l 257
 310 123 l 257
 310 325 l 257
 459 325 l 257
 459 425 l 257
 310 425 l 257
 310 508 l 258
 310 581 343 620 400 620 c 258
 401 620 l 258
 430 620 462 610 497 592 c 257
 507 592 l 257
EndSplineSet
EndChar

StartChar: summation
Encoding: 8721 8721 349
Width: 585
VWidth: 0
GlyphClass: 2
Flags: HW
PickledData: "(dp1
S'org.pippin.gimp.org.kernagic'
p2
(dp3
S'lstem'
p4
I0
sS'rstem'
p5
I0
ssS'com.typemytype.robofont.layerData'
p6
(dp7
S'b'
(dp8
S'name'
p9
S'summation'
p10
sS'lib'
p11
(dp12
sS'unicodes'
p13
(tsS'width'
p14
I1050
sS'contours'
p15
(tsS'components'
p16
(tsS'anchors'
p17
(tsssS'org.robofab.postScriptHintData'
p18
(dp19
s."
LayerCount: 2
Fore
SplineSet
35 711 m 257
 35 601 l 257
 275 282 l 257
 33 -25 l 257
 33 -134 l 257
 556 -134 l 257
 556 -1 l 257
 212 -1 l 257
 453 290 l 257
 245 581 l 257
 540 581 l 257
 540 711 l 257
 35 711 l 257
EndSplineSet
EndChar

StartChar: t
Encoding: 116 116 350
Width: 437
VWidth: 0
GlyphClass: 2
Flags: HW
PickledData: "(dp1
S'org.pippin.gimp.org.kernagic'
p2
(dp3
S'lstem'
p4
I189
sS'rstem'
p5
I480
ssS'com.fontlab.hintData'
p6
(dp7
S'vhints'
p8
((dp9
S'position'
p10
I244
sS'width'
p11
I122
s(dp12
g10
I286
sg11
I80
stp13
sS'hhints'
p14
((dp15
g10
I-11
sg11
I83
stp16
ssS'com.typemytype.robofont.layerData'
p17
(dp18
sS'org.robofab.postScriptHintData'
p19
(dp20
s."
HStem: -5 41
VStem: 119 60 140 39
AnchorPoint: "top" 209 646 basechar 0
LayerCount: 2
Fore
SplineSet
311 -5 m 257
 416 -1 l 257
 420 112 l 257
 342 115 l 258
 283 117 268 142 268 200 c 258
 268 428 l 257
 409 428 l 257
 409 528 l 257
 268 528 l 257
 268 693 l 257
 109 681 l 257
 100 530 l 257
 20 520 l 257
 16 428 l 257
 95 428 l 257
 95 206 l 258
 95 68 121 -5 311 -5 c 257
EndSplineSet
EndChar

StartChar: thorn
Encoding: 254 254 355
Width: 542
VWidth: 0
GlyphClass: 2
Flags: HW
PickledData: "(dp1
S'org.pippin.gimp.org.kernagic'
p2
(dp3
S'lstem'
p4
I0
sS'rstem'
p5
I0
ssS'com.typemytype.robofont.layerData'
p6
(dp7
S'b'
(dp8
S'name'
p9
S'thorn'
p10
sS'lib'
p11
(dp12
sS'unicodes'
p13
(tsS'width'
p14
I1221
sS'contours'
p15
(tsS'components'
p16
(tsS'anchors'
p17
(tsssS'org.robofab.postScriptHintData'
p18
(dp19
s."
LayerCount: 2
Fore
SplineSet
91 282 m 257
 91 -208 l 257
 265 -208 l 257
 265 282 l 257
 91 282 l 257
EndSplineSet
Refer: 155 98 N 1 0 0 1 29 0 2
EndChar

StartChar: three
Encoding: 51 51 356
Width: 598
VWidth: 0
GlyphClass: 2
Flags: HW
PickledData: "(dp1
S'org.pippin.gimp.org.kernagic'
p2
(dp3
S'lstem'
p4
I0
sS'rstem'
p5
I0
ssS'com.typemytype.robofont.layerData'
p6
(dp7
sS'org.robofab.postScriptHintData'
p8
(dp9
s."
LayerCount: 2
Fore
SplineSet
272 -10 m 256
 401 -10 543 46 543 204 c 256
 543 273 504 354 378 368 c 257
 501 388 522 468 522 534 c 257
 520 667 411 721 265 721 c 256
 147 721 74 665 36 617 c 257
 114 531 l 257
 124 528 l 257
 164 569 205 587 253 588 c 256
 315 588 346 563 348 508 c 257
 348 425 297 409 195 409 c 257
 143 408 l 257
 153 304 l 257
 197 304 l 258
 294 304 357 292 357 211 c 256
 357 157 327 121 258 121 c 256
 189 121 138 155 112 183 c 257
 99 183 l 257
 29 92 l 257
 43 70 127 -10 272 -10 c 256
EndSplineSet
EndChar

StartChar: threequarters
Encoding: 190 190 357
Width: 838
VWidth: 0
GlyphClass: 3
Flags: HW
PickledData: "(dp1
S'org.pippin.gimp.org.kernagic'
p2
(dp3
S'lstem'
p4
I0
sS'rstem'
p5
I0
ssS'com.typemytype.robofont.layerData'
p6
(dp7
sS'org.robofab.postScriptHintData'
p8
(dp9
s."
LayerCount: 2
Fore
SplineSet
631 159 m 257
 715 313 l 257
 715 159 l 257
 631 159 l 257
200 0 m 257
 310 0 l 257
 796 736 l 257
 690 736 l 257
 200 0 l 257
715 0 m 257
 801 0 l 257
 801 86 l 257
 847 86 l 257
 855 159 l 257
 800 159 l 257
 800 428 l 257
 710 428 l 257
 537 162 l 257
 537 86 l 257
 715 86 l 257
 715 0 l 257
183 281 m 256
 273 281 352 324 352 415 c 256
 352 461 326 507 276 517 c 257
 327 527 342 569 343 607 c 256
 343 688 277 719 203 719 c 256
 150 719 93 704 51 678 c 257
 80 617 l 257
 115 637 154 647 186 647 c 256
 226 647 256 632 256 596 c 256
 256 567 249 550 184 550 c 258
 125 550 l 257
 125 479 l 257
 183 479 l 257
 187 479 l 258
 245 479 267 454 267 418 c 256
 267 373 226 354 180 354 c 256
 143 354 103 366 76 387 c 257
 46 315 l 257
 88 292 137 281 183 281 c 256
EndSplineSet
Ligature2: "fracDiagonalFractionslookup11 subtable" three slash four
EndChar

StartChar: tilde
Encoding: 732 732 358
Width: 474
VWidth: 0
GlyphClass: 4
Flags: HW
PickledData: "(dp1
S'org.robofab.postScriptHintData'
p2
(dp3
sS'com.fontlab.hintData'
p4
(dp5
S'vhints'
p6
((dp7
S'position'
p8
I169
sS'width'
p9
I63
s(dp10
g8
I657
sg9
I67
stp11
sS'hhints'
p12
((dp13
g8
I1301
sg9
I88
s(dp14
g8
I1400
sg9
I79
stp15
ssS'com.typemytype.robofont.layerData'
p16
(dp17
s."
HStem: 635 43 684 39
VStem: 83 31 321 33
AnchorPoint: "top" 237 528 mark 0
LayerCount: 2
Fore
SplineSet
72 613 m 257
 142 613 l 257
 150 649 161 661 178 661 c 256
 211 661 259 613 314 613 c 256
 390 613 412 689 412 744 c 257
 342 744 l 257
 334 714 325 705 312 705 c 256
 285 705 243 745 175 745 c 256
 94 745 72 673 72 613 c 257
EndSplineSet
EndChar

StartChar: trademark
Encoding: 8482 8482 359
Width: 1000
VWidth: 0
GlyphClass: 2
Flags: HW
PickledData: "(dp1
S'org.robofab.postScriptHintData'
p2
(dp3
sS'com.typemytype.robofont.layerData'
p4
(dp5
S'b'
(dp6
S'name'
p7
S'trademark'
p8
sS'lib'
p9
(dp10
sS'unicodes'
p11
(tsS'width'
p12
I2216
sS'contours'
p13
(tsS'components'
p14
(tsS'anchors'
p15
(tsss."
LayerCount: 2
Fore
SplineSet
167 254 m 257
 268 254 l 257
 268 633 l 257
 393 633 l 257
 393 711 l 257
 42 711 l 257
 42 633 l 257
 167 633 l 257
 167 254 l 257
442 254 m 257
 538 254 l 257
 547 531 l 257
 664 292 l 257
 714 292 l 257
 831 531 l 257
 840 254 l 257
 935 254 l 257
 925 711 l 257
 824 711 l 257
 689 429 l 257
 554 711 l 257
 452 711 l 257
 442 254 l 257
EndSplineSet
EndChar

StartChar: two
Encoding: 50 50 360
Width: 672
VWidth: 0
GlyphClass: 2
Flags: HW
PickledData: "(dp1
S'org.pippin.gimp.org.kernagic'
p2
(dp3
S'lstem'
p4
I0
sS'rstem'
p5
I0
ssS'com.typemytype.robofont.layerData'
p6
(dp7
sS'org.robofab.postScriptHintData'
p8
(dp9
s."
LayerCount: 2
Fore
SplineSet
151 501 m 257
 194 553 262 590 327 590 c 256
 382 590 419 554 419 499 c 256
 419 458 398 421 354 378 c 258
 90 118 l 257
 118 0 l 257
 576 0 l 257
 581 122 l 257
 297 122 l 257
 453 269 l 258
 551 361 585 429 585 495 c 256
 585 603 524 721 328 721 c 256
 203 721 110 652 56 588 c 257
 138 501 l 257
 151 501 l 257
EndSplineSet
EndChar

StartChar: u
Encoding: 117 117 361
Width: 616
VWidth: 0
GlyphClass: 2
Flags: HW
PickledData: "(dp1
S'org.pippin.gimp.org.kernagic'
p2
(dp3
S'lstem'
p4
I0
sS'rstem'
p5
I0
ssS'com.fontlab.hintData'
p6
(dp7
S'vhints'
p8
((dp9
S'position'
p10
I162
sS'width'
p11
I166
s(dp12
g10
I862
sg11
I166
stp13
sS'hhints'
p14
((dp15
g10
I-21
sg11
I126
stp16
ssS'com.typemytype.robofont.layerData'
p17
(dp18
sS'org.robofab.postScriptHintData'
p19
(dp20
s."
HStem: -10 62
VStem: 79 81 421 81
AnchorPoint: "top" 309 528 basechar 0
LayerCount: 2
Fore
SplineSet
379 145 m 257
 363 125 339 102 300 102 c 256
 255 102 233 129 233 222 c 258
 233 528 l 257
 57 528 l 257
 57 200 l 258
 57 70 119 -10 238 -10 c 256
 321 -10 369 31 395 78 c 257
 403 0 l 257
 555 0 l 257
 555 528 l 257
 379 528 l 257
 379 145 l 257
EndSplineSet
EndChar

StartChar: underscore
Encoding: 95 95 369
Width: 488
VWidth: 0
GlyphClass: 2
Flags: HW
PickledData: "(dp1
S'org.pippin.gimp.org.kernagic'
p2
(dp3
S'lstem'
p4
I0
sS'rstem'
p5
I0
ssS'com.typemytype.robofont.layerData'
p6
(dp7
sS'org.robofab.postScriptHintData'
p8
(dp9
s."
LayerCount: 2
Fore
SplineSet
0 -141 m 257
 489 -141 l 257
 489 -43 l 257
 0 -43 l 257
 0 -141 l 257
EndSplineSet
EndChar

StartChar: uni00AD
Encoding: 173 173 372
Width: 517
VWidth: 0
GlyphClass: 2
Flags: HW
PickledData: "(dp1
S'org.robofab.postScriptHintData'
p2
(dp3
s."
LayerCount: 2
Fore
SplineSet
98 43 m 257
 415 43 l 257
 415 158 l 257
 98 158 l 257
 98 43 l 257
EndSplineSet
EndChar

StartChar: uni00B2
Encoding: 178 178 373
Width: 413
VWidth: 0
GlyphClass: 2
Flags: HW
PickledData: "(dp1
S'org.robofab.postScriptHintData'
p2
(dp3
sS'com.typemytype.robofont.layerData'
p4
(dp5
s."
LayerCount: 2
Fore
SplineSet
77 290 m 257
 349 290 l 257
 358 368 l 257
 217 368 l 257
 281 425 252 390 302 439 c 256
 335 473 358 528 358 582 c 256
 358 671 289 722 223 722 c 256
 161 722 112 702 81 658 c 257
 120 593 l 257
 141 622 176 637 211 637 c 256
 236 637 266 615 266 579 c 256
 266 562 236 523 229 509 c 257
 130 399 122 414 77 367 c 257
 77 290 l 257
EndSplineSet
EndChar

StartChar: uni00B3
Encoding: 179 179 374
Width: 431
VWidth: 0
GlyphClass: 2
Flags: HW
PickledData: "(dp1
S'org.robofab.postScriptHintData'
p2
(dp3
sS'com.typemytype.robofont.layerData'
p4
(dp5
s."
LayerCount: 2
Fore
SplineSet
210 282 m 256
 300 282 379 326 379 416 c 256
 379 463 353 509 304 518 c 257
 355 528 370 569 371 608 c 256
 371 690 306 720 231 720 c 256
 176 720 119 705 77 679 c 257
 105 618 l 257
 140 638 180 648 213 648 c 256
 254 648 285 633 285 597 c 256
 285 568 278 550 212 550 c 258
 152 550 l 257
 152 480 l 257
 211 481 l 257
 214 481 l 258
 272 481 295 456 295 420 c 256
 295 375 254 355 207 355 c 256
 169 355 128 368 102 389 c 257
 71 317 l 257
 113 294 162 282 210 282 c 256
EndSplineSet
EndChar

StartChar: uni00B9
Encoding: 185 185 376
Width: 418
VWidth: 0
GlyphClass: 2
Flags: HW
PickledData: "(dp1
S'org.robofab.postScriptHintData'
p2
(dp3
sS'com.typemytype.robofont.layerData'
p4
(dp5
s."
LayerCount: 2
Fore
SplineSet
115 271 m 257
 349 271 l 257
 349 355 l 257
 282 355 l 257
 282 712 l 257
 205 712 l 257
 192 706 130 669 107 656 c 257
 107 571 l 257
 107 571 162 599 180 608 c 257
 180 355 l 257
 115 355 l 257
 115 271 l 257
EndSplineSet
EndChar

StartChar: uni02C9
Encoding: 713 713 445
Width: 292
VWidth: 0
GlyphClass: 4
Flags: HW
PickledData: "(dp1
S'org.robofab.postScriptHintData'
p2
(dp3
s."
AnchorPoint: "top" 142 528 mark 0
LayerCount: 2
Fore
SplineSet
-33 659 m 257
 317 659 l 257
 317 748 l 257
 -33 748 l 257
 -33 659 l 257
EndSplineSet
EndChar

StartChar: uni0307
Encoding: 775 775 446
Width: 310
VWidth: 0
GlyphClass: 4
Flags: HW
PickledData: "(dp1
S'org.robofab.postScriptHintData'
p2
(dp3
sS'com.typemytype.robofont.layerData'
p4
(dp5
s."
LayerCount: 2
Fore
SplineSet
250 711 m 256
 250 763 214 795 156 795 c 256
 99 795 63 763 63 711 c 256
 63 657 99 623 156 623 c 256
 214 623 250 657 250 711 c 256
EndSplineSet
EndChar

StartChar: uni2074
Encoding: 8308 8308 465
Width: 335
VWidth: 0
GlyphClass: 2
Flags: HW
PickledData: "(dp1
S'org.robofab.postScriptHintData'
p2
(dp3
sS'com.typemytype.robofont.layerData'
p4
(dp5
s."
LayerCount: 2
Fore
SplineSet
86 443 m 257
 169 599 l 257
 169 443 l 257
 86 443 l 257
169 284 m 257
 254 284 l 257
 254 372 l 257
 300 372 l 257
 309 443 l 257
 254 443 l 257
 254 712 l 257
 164 712 l 257
 -7 447 l 257
 -7 372 l 257
 169 372 l 257
 169 284 l 257
EndSplineSet
EndChar

StartChar: uni2113
Encoding: 8467 8467 466
Width: 664
VWidth: 0
GlyphClass: 2
Flags: HW
PickledData: "(dp1
S'org.robofab.postScriptHintData'
p2
(dp3
s."
LayerCount: 2
Fore
SplineSet
377 445 m 257
 423 634 l 258
 439 699 477 725 510 725 c 256
 544 725 574 698 574 657 c 256
 574 612 536 551 455 498 c 256
 454 498 406 466 377 445 c 257
141 149 m 256
 141 41 202 -10 293 -10 c 256
 427 -10 515 48 515 48 c 257
 500 147 l 257
 450 127 404 112 367 112 c 256
 333 112 312 127 312 164 c 256
 312 175 314 188 318 204 c 258
 348 323 l 257
 487 422 l 258
 612 510 662 553 662 656 c 256
 662 771 568 834 471 834 c 256
 388 834 303 787 274 682 c 258
 178 327 l 257
 32 221 l 257
 61 163 l 257
 148 223 l 257
 142 196 141 171 141 149 c 256
EndSplineSet
EndChar

StartChar: Delta
Encoding: 8710 8710 468
Width: 650
VWidth: 0
GlyphClass: 2
Flags: HW
PickledData: "(dp1
S'org.pippin.gimp.org.kernagic'
p2
(dp3
S'lstem'
p4
I0
sS'rstem'
p5
I0
ssS'com.typemytype.robofont.layerData'
p6
(dp7
S'b'
(dp8
S'name'
p9
S'uni2206'
p10
sS'lib'
p11
(dp12
sS'unicodes'
p13
(tsS'width'
p14
I1278
sS'contours'
p15
(tsS'components'
p16
(tsS'anchors'
p17
(tsssS'org.robofab.postScriptHintData'
p18
(dp19
s."
LayerCount: 2
Fore
SplineSet
342 601 m 257
 519 87 l 257
 135 87 l 257
 308 601 l 257
 325 661 l 257
 342 601 l 257
280 776 m 257
 35 43 l 257
 35 0 l 257
 618 0 l 257
 618 43 l 257
 374 776 l 257
 280 776 l 257
EndSplineSet
EndChar

StartChar: v
Encoding: 118 118 479
Width: 537
VWidth: 0
GlyphClass: 2
Flags: HW
PickledData: "(dp1
S'org.pippin.gimp.org.kernagic'
p2
(dp3
S'lstem'
p4
I0
sS'rstem'
p5
I0
ssS'com.typemytype.robofont.guides'
p6
((dp7
S'y'
I552
sS'x'
I438
sS'magnetic'
p8
I5
sS'angle'
p9
I0
sS'isGlobal'
p10
I00
stp11
sS'com.typemytype.robofont.layerData'
p12
(dp13
sS'org.robofab.postScriptHintData'
p14
(dp15
s."
LayerCount: 2
Fore
SplineSet
184 0 m 257
 358 0 l 257
 535 528 l 257
 359 528 l 257
 302 294 l 257
 279 187 l 257
 248 302 215 414 183 528 c 257
 3 528 l 257
 184 0 l 257
EndSplineSet
EndChar

StartChar: w
Encoding: 119 119 480
Width: 749
VWidth: 0
GlyphClass: 2
Flags: HW
PickledData: "(dp1
S'org.pippin.gimp.org.kernagic'
p2
(dp3
S'lstem'
p4
I0
sS'rstem'
p5
I0
ssS'com.typemytype.robofont.layerData'
p6
(dp7
sS'org.robofab.postScriptHintData'
p8
(dp9
s."
AnchorPoint: "top" 383 528 basechar 0
LayerCount: 2
Fore
SplineSet
382 355 m 257
 454 -3 l 257
 618 -3 l 257
 747 528 l 257
 598 528 l 257
 537 170 l 257
 461 528 l 257
 305 528 l 257
 216 163 l 257
 163 528 l 257
 1 528 l 257
 126 -3 l 257
 282 -3 l 257
 382 355 l 257
EndSplineSet
EndChar

StartChar: x
Encoding: 120 120 485
Width: 536
VWidth: 0
GlyphClass: 2
Flags: HW
PickledData: "(dp1
S'org.pippin.gimp.org.kernagic'
p2
(dp3
S'lstem'
p4
I0
sS'rstem'
p5
I0
ssS'com.fontlab.hintData'
p6
(dp7
S'hhints'
p8
((dp9
S'position'
p10
I0
sS'width'
p11
I22
s(dp12
g10
I1034
sg11
I21
stp13
ssS'com.typemytype.robofont.layerData'
p14
(dp15
sS'org.robofab.postScriptHintData'
p16
(dp17
s."
HStem: 0 11 505 10
LayerCount: 2
Fore
SplineSet
363 266 m 257
 529 528 l 257
 367 528 l 257
 279 394 l 257
 190 528 l 257
 7 528 l 257
 179 265 l 257
 -2 -3 l 257
 163 -3 l 257
 262 138 l 257
 354 -3 l 257
 541 -3 l 257
 363 266 l 257
EndSplineSet
EndChar

StartChar: y
Encoding: 121 121 486
Width: 554
VWidth: 0
GlyphClass: 2
Flags: HW
PickledData: "(dp1
S'org.pippin.gimp.org.kernagic'
p2
(dp3
S'lstem'
p4
I0
sS'rstem'
p5
I0
ssS'com.typemytype.robofont.layerData'
p6
(dp7
sS'org.robofab.postScriptHintData'
p8
(dp9
s."
AnchorPoint: "top" 270 528 basechar 0
LayerCount: 2
Fore
SplineSet
562 528 m 257
 400 528 l 257
 281 235 l 257
 156 528 l 257
 -14 528 l 257
 195 74 l 257
 88 -167 l 257
 228 -221 l 257
 562 528 l 257
EndSplineSet
EndChar

StartChar: yen
Encoding: 165 165 490
Width: 658
VWidth: 0
GlyphClass: 2
Flags: HW
PickledData: "(dp1
S'org.pippin.gimp.org.kernagic'
p2
(dp3
S'lstem'
p4
I0
sS'rstem'
p5
I0
ssS'com.typemytype.robofont.layerData'
p6
(dp7
S'b'
(dp8
S'name'
p9
S'yen'
p10
sS'lib'
p11
(dp12
sS'unicodes'
p13
(tsS'width'
p14
I1366
sS'contours'
p15
(tsS'components'
p16
(tsS'anchors'
p17
(tsssS'org.robofab.postScriptHintData'
p18
(dp19
s."
LayerCount: 2
Fore
SplineSet
421 261 m 1
 555 261 l 1
 555 330 l 1
 448.494199536 330 l 1
 658 711 l 1
 463 711 l 1
 328 453 l 1
 195 711 l 1
 0 711 l 1
 207.658198614 330 l 1
 90 330 l 1
 90 261 l 1
 236 261 l 1
 236 186 l 1
 90 186 l 1
 90 117 l 1
 236 117 l 1
 236 0 l 1
 421 0 l 1
 421 117 l 1
 555 117 l 1
 555 186 l 1
 421 186 l 1
 421 261 l 1
EndSplineSet
EndChar

StartChar: z
Encoding: 122 122 492
Width: 467
VWidth: 0
GlyphClass: 2
Flags: HW
PickledData: "(dp1
S'org.pippin.gimp.org.kernagic'
p2
(dp3
S'lstem'
p4
I0
sS'rstem'
p5
I0
ssS'com.typemytype.robofont.layerData'
p6
(dp7
sS'org.robofab.postScriptHintData'
p8
(dp9
s."
AnchorPoint: "top" 232 528 basechar 0
LayerCount: 2
Fore
SplineSet
35 528 m 257
 32 425 l 257
 250 425 l 257
 32 83 l 257
 32 0 l 257
 449 0 l 257
 453 107 l 257
 230 107 l 257
 439 434 l 257
 439 528 l 257
 35 528 l 257
EndSplineSet
EndChar

StartChar: zero
Encoding: 48 48 496
Width: 672
VWidth: 0
GlyphClass: 2
Flags: HW
PickledData: "(dp1
S'org.pippin.gimp.org.kernagic'
p2
(dp3
S'lstem'
p4
I0
sS'rstem'
p5
I0
ssS'com.typemytype.robofont.layerData'
p6
(dp7
S'b'
(dp8
S'name'
p9
S'zero'
p10
sS'lib'
p11
(dp12
sS'unicodes'
p13
(tsS'width'
p14
I1248
sS'contours'
p15
(tsS'components'
p16
(tsS'anchors'
p17
(tsssS'org.robofab.postScriptHintData'
p18
(dp19
s."
LayerCount: 2
Fore
SplineSet
337 -10 m 256
 521 -10 633 131 633 356 c 256
 633 580 520 721 337 721 c 256
 153 721 40 580 40 356 c 256
 40 131 153 -10 337 -10 c 256
337 123 m 256
 274 123 234 210 234 356 c 256
 235 499 275 588 337 588 c 256
 400 588 439 501 439 356 c 256
 439 210 400 123 337 123 c 256
EndSplineSet
EndChar

StartChar: Sigma
Encoding: 931 931 497
Width: 585
VWidth: 0
GlyphClass: 2
Flags: HW
LayerCount: 2
Fore
SplineSet
35 711 m 257
 35 601 l 257
 275 282 l 257
 33 -25 l 257
 33 -134 l 257
 556 -134 l 257
 556 -1 l 257
 212 -1 l 257
 453 290 l 257
 245 581 l 257
 540 581 l 257
 540 711 l 257
 35 711 l 257
EndSplineSet
EndChar

StartChar: uni03BC
Encoding: 956 956 498
Width: 607
VWidth: 0
GlyphClass: 2
Flags: HW
LayerCount: 2
Fore
SplineSet
379 145 m 257
 363 125 339 102 300 102 c 256
 255 102 233 129 233 222 c 258
 233 528 l 257
 57 528 l 257
 57 -160 l 257
 233 -160 l 257
 233 -10 l 258
 235 -10 236 -10 238 -10 c 256
 321 -10 369 31 395 78 c 257
 403 0 l 257
 555 0 l 257
 555 528 l 257
 379 528 l 257
 379 145 l 257
EndSplineSet
EndChar

StartChar: emptyset
Encoding: 8709 8709 499
Width: 819
VWidth: 0
GlyphClass: 2
Flags: HW
LayerCount: 2
Fore
SplineSet
40 358 m 256
 40 570 216 734 406 734 c 256
 490 734 571 701 635 648 c 257
 721 745 l 257
 763 713 l 257
 673 613 l 257
 734 547 772 458 772 358 c 256
 772 146 596 -18 406 -18 c 256
 324 -18 245 13 182 64 c 257
 88 -42 l 257
 50 -8 l 257
 144 98 l 257
 80 165 40 256 40 358 c 256
215 101 m 257
 270 57 337 33 406 33 c 256
 569 33 722 175 722 358 c 256
 722 443 690 518 639 575 c 257
 215 101 l 257
178 136 m 257
 602 611 l 257
 546 657 477 683 406 683 c 256
 243 683 90 541 90 358 c 256
 90 271 125 193 178 136 c 257
EndSplineSet
EndChar

StartChar: uni03A9
Encoding: 937 937 500
Width: 1000
VWidth: 0
GlyphClass: 2
Flags: HW
LayerCount: 2
Fore
SplineSet
41 -22 m 257
 28 79 l 257
 167 79 l 257
 90 152 38 254 38 377 c 256
 38 590 194 729 398 729 c 256
 611 729 748 574 748 376 c 256
 748 249 685 148 613 79 c 257
 753 79 l 257
 741 -22 l 257
 453 -22 l 257
 452 65 l 257
 462 72 l 258
 558 136 627 240 627 367 c 256
 627 508 550 622 396 622 c 256
 255 622 158 523 158 369 c 256
 158 242 224 135 321 72 c 258
 331 66 l 257
 332 -22 l 257
 41 -22 l 257
EndSplineSet
EndChar

StartChar: uni0358
Encoding: 856 856 501
Width: 310
VWidth: 0
GlyphClass: 4
Flags: HW
LayerCount: 2
Fore
SplineSet
250 711 m 256
 250 763 214 795 156 795 c 256
 99 795 63 763 63 711 c 256
 63 657 99 623 156 623 c 256
 214 623 250 657 250 711 c 256
EndSplineSet
EndChar

StartChar: uni0259
Encoding: 601 601 502
Width: 585
VWidth: 0
GlyphClass: 2
Flags: HW
PickledData: "(dp1
S'com.fontlab.hintData'
p2
(dp3
S'hhints'
p4
((dp5
S'position'
p6
I-19
sS'width'
p7
I94
s(dp8
g6
I982
sg7
I92
stp9
ss."
HStem: -9 46 479 45
LayerCount: 2
Fore
SplineSet
366 224 m 257
 362 136 324 100 268 100 c 256
 215 100 188 137 188 224 c 257
 366 224 l 257
258 538 m 256
 169 538 89 512 48 473 c 257
 85 383 l 257
 94 383 l 257
 135 409 184 427 238 427 c 256
 308 427 359 388 367 316 c 257
 47 316 l 257
 47 316 41 289 41 247 c 256
 45 97 108 -10 276 -10 c 256
 438 -10 542 96 542 264 c 256
 542 433 432 538 258 538 c 256
EndSplineSet
EndChar
